solid exported
	facet normal 0.04906754666509105 0 0.9987954624768123
		outer loop
			vertex 0 1.5 6
			vertex 0 0 6
			vertex 0.5881028175354004 1.5 5.971108436584473
		endloop
	endfacet
	facet normal 0.04906754666509105 0 0.9987954624768123
		outer loop
			vertex 0 0 6
			vertex 0.5881028175354004 0 5.971108436584473
			vertex 0.5881028175354004 1.5 5.971108436584473
		endloop
	endfacet
	facet normal 0.1467305081871233 0 0.9891765049611464
		outer loop
			vertex 0.5881028175354004 1.5 5.971108436584473
			vertex 0.5881028175354004 0 5.971108436584473
			vertex 1.1705418825149536 1.5 5.884711742401123
		endloop
	endfacet
	facet normal 0.1467305081871233 0 0.9891765049611464
		outer loop
			vertex 0.5881028175354004 0 5.971108436584473
			vertex 1.1705418825149536 0 5.884711742401123
			vertex 1.1705418825149536 1.5 5.884711742401123
		endloop
	endfacet
	facet normal 0.24298029096574222 0 0.9700312253748348
		outer loop
			vertex 1.1705418825149536 1.5 5.884711742401123
			vertex 1.1705418825149536 0 5.884711742401123
			vertex 1.7417080402374268 1.5 5.741641998291016
		endloop
	endfacet
	facet normal 0.24298029096574222 0 0.9700312253748348
		outer loop
			vertex 1.1705418825149536 0 5.884711742401123
			vertex 1.7417080402374268 0 5.741641998291016
			vertex 1.7417080402374268 1.5 5.741641998291016
		endloop
	endfacet
	facet normal 0.3368897013655432 0 0.9415441195790218
		outer loop
			vertex 1.7417080402374268 1.5 5.741641998291016
			vertex 1.7417080402374268 0 5.741641998291016
			vertex 2.296100616455078 1.5 5.543277263641357
		endloop
	endfacet
	facet normal 0.3368897013655432 0 0.9415441195790218
		outer loop
			vertex 1.7417080402374268 0 5.741641998291016
			vertex 2.296100616455078 0 5.543277263641357
			vertex 2.296100616455078 1.5 5.543277263641357
		endloop
	endfacet
	facet normal 0.42755502736290496 0 0.9039893243709828
		outer loop
			vertex 2.296100616455078 1.5 5.543277263641357
			vertex 2.296100616455078 0 5.543277263641357
			vertex 2.8283803462982178 1.5 5.29152774810791
		endloop
	endfacet
	facet normal 0.42755502736290496 0 0.9039893243709828
		outer loop
			vertex 2.296100616455078 0 5.543277263641357
			vertex 2.8283803462982178 0 5.29152774810791
			vertex 2.8283803462982178 1.5 5.29152774810791
		endloop
	endfacet
	facet normal 0.5141028153571211 0 0.8577285673462682
		outer loop
			vertex 2.8283803462982178 1.5 5.29152774810791
			vertex 2.8283803462982178 0 5.29152774810791
			vertex 3.333421468734741 1.5 4.9888176918029785
		endloop
	endfacet
	facet normal 0.5141028153571211 0 0.8577285673462682
		outer loop
			vertex 2.8283803462982178 0 5.29152774810791
			vertex 3.333421468734741 0 4.9888176918029785
			vertex 3.333421468734741 1.5 4.9888176918029785
		endloop
	endfacet
	facet normal 0.595699074308888 0 0.803207702196346
		outer loop
			vertex 3.333421468734741 1.5 4.9888176918029785
			vertex 3.333421468734741 0 4.9888176918029785
			vertex 3.8063597679138184 1.5 4.638062953948975
		endloop
	endfacet
	facet normal 0.595699074308888 0 0.803207702196346
		outer loop
			vertex 3.333421468734741 0 4.9888176918029785
			vertex 3.8063597679138184 0 4.638062953948975
			vertex 3.8063597679138184 1.5 4.638062953948975
		endloop
	endfacet
	facet normal 0.6715595669528792 0 0.7409505705740846
		outer loop
			vertex 3.8063597679138184 1.5 4.638062953948975
			vertex 3.8063597679138184 0 4.638062953948975
			vertex 4.242640495300293 1.5 4.242640495300293
		endloop
	endfacet
	facet normal 0.6715595669528792 0 0.7409505705740846
		outer loop
			vertex 3.8063597679138184 0 4.638062953948975
			vertex 4.242640495300293 0 4.242640495300293
			vertex 4.242640495300293 1.5 4.242640495300293
		endloop
	endfacet
	facet normal 0.7409505705740846 0 0.6715595669528792
		outer loop
			vertex 4.242640495300293 1.5 4.242640495300293
			vertex 4.242640495300293 0 4.242640495300293
			vertex 4.638062953948975 1.5 3.8063597679138184
		endloop
	endfacet
	facet normal 0.7409505705740846 0 0.6715595669528792
		outer loop
			vertex 4.242640495300293 0 4.242640495300293
			vertex 4.638062953948975 0 3.8063597679138184
			vertex 4.638062953948975 1.5 3.8063597679138184
		endloop
	endfacet
	facet normal 0.803207702196346 0 0.595699074308888
		outer loop
			vertex 4.638062953948975 1.5 3.8063597679138184
			vertex 4.638062953948975 0 3.8063597679138184
			vertex 4.9888176918029785 1.5 3.333421468734741
		endloop
	endfacet
	facet normal 0.803207702196346 0 0.595699074308888
		outer loop
			vertex 4.638062953948975 0 3.8063597679138184
			vertex 4.9888176918029785 0 3.333421468734741
			vertex 4.9888176918029785 1.5 3.333421468734741
		endloop
	endfacet
	facet normal 0.8577285673462682 0 0.5141028153571211
		outer loop
			vertex 4.9888176918029785 1.5 3.333421468734741
			vertex 4.9888176918029785 0 3.333421468734741
			vertex 5.29152774810791 1.5 2.8283803462982178
		endloop
	endfacet
	facet normal 0.8577285673462682 0 0.5141028153571211
		outer loop
			vertex 4.9888176918029785 0 3.333421468734741
			vertex 5.29152774810791 0 2.8283803462982178
			vertex 5.29152774810791 1.5 2.8283803462982178
		endloop
	endfacet
	facet normal 0.9039893243709828 0 0.42755502736290496
		outer loop
			vertex 5.29152774810791 1.5 2.8283803462982178
			vertex 5.29152774810791 0 2.8283803462982178
			vertex 5.543277263641357 1.5 2.296100616455078
		endloop
	endfacet
	facet normal 0.9039893243709828 0 0.42755502736290496
		outer loop
			vertex 5.29152774810791 0 2.8283803462982178
			vertex 5.543277263641357 0 2.296100616455078
			vertex 5.543277263641357 1.5 2.296100616455078
		endloop
	endfacet
	facet normal 0.9415441195790218 0 0.3368897013655432
		outer loop
			vertex 5.543277263641357 1.5 2.296100616455078
			vertex 5.543277263641357 0 2.296100616455078
			vertex 5.741641998291016 1.5 1.7417080402374268
		endloop
	endfacet
	facet normal 0.9415441195790218 0 0.3368897013655432
		outer loop
			vertex 5.543277263641357 0 2.296100616455078
			vertex 5.741641998291016 0 1.7417080402374268
			vertex 5.741641998291016 1.5 1.7417080402374268
		endloop
	endfacet
	facet normal 0.9700312253748348 0 0.24298029096574222
		outer loop
			vertex 5.741641998291016 1.5 1.7417080402374268
			vertex 5.741641998291016 0 1.7417080402374268
			vertex 5.884711742401123 1.5 1.1705418825149536
		endloop
	endfacet
	facet normal 0.9700312253748348 0 0.24298029096574222
		outer loop
			vertex 5.741641998291016 0 1.7417080402374268
			vertex 5.884711742401123 0 1.1705418825149536
			vertex 5.884711742401123 1.5 1.1705418825149536
		endloop
	endfacet
	facet normal 0.9891765049611464 0 0.1467305081871233
		outer loop
			vertex 5.884711742401123 1.5 1.1705418825149536
			vertex 5.884711742401123 0 1.1705418825149536
			vertex 5.971108436584473 1.5 0.5881028175354004
		endloop
	endfacet
	facet normal 0.9891765049611464 0 0.1467305081871233
		outer loop
			vertex 5.884711742401123 0 1.1705418825149536
			vertex 5.971108436584473 0 0.5881028175354004
			vertex 5.971108436584473 1.5 0.5881028175354004
		endloop
	endfacet
	facet normal 0.9987954624768122 0 0.04906754666509106
		outer loop
			vertex 5.971108436584473 1.5 0.5881028175354004
			vertex 5.971108436584473 0 0.5881028175354004
			vertex 6 1.5 3.6739402930577075e-16
		endloop
	endfacet
	facet normal 0.9987954624768122 0 0.04906754666509106
		outer loop
			vertex 5.971108436584473 0 0.5881028175354004
			vertex 6 0 3.6739402930577075e-16
			vertex 6 1.5 3.6739402930577075e-16
		endloop
	endfacet
	facet normal 0.9987954624768122 0 -0.04906754666509102
		outer loop
			vertex 6 1.5 3.6739402930577075e-16
			vertex 6 0 3.6739402930577075e-16
			vertex 5.971108436584473 1.5 -0.5881028175354004
		endloop
	endfacet
	facet normal 0.9987954624768122 0 -0.04906754666509102
		outer loop
			vertex 6 0 3.6739402930577075e-16
			vertex 5.971108436584473 0 -0.5881028175354004
			vertex 5.971108436584473 1.5 -0.5881028175354004
		endloop
	endfacet
	facet normal 0.9891765049611464 0 -0.1467305081871233
		outer loop
			vertex 5.971108436584473 1.5 -0.5881028175354004
			vertex 5.971108436584473 0 -0.5881028175354004
			vertex 5.884711742401123 1.5 -1.1705418825149536
		endloop
	endfacet
	facet normal 0.9891765049611464 0 -0.1467305081871233
		outer loop
			vertex 5.971108436584473 0 -0.5881028175354004
			vertex 5.884711742401123 0 -1.1705418825149536
			vertex 5.884711742401123 1.5 -1.1705418825149536
		endloop
	endfacet
	facet normal 0.9700312253748348 0 -0.24298029096574222
		outer loop
			vertex 5.884711742401123 1.5 -1.1705418825149536
			vertex 5.884711742401123 0 -1.1705418825149536
			vertex 5.741641998291016 1.5 -1.7417080402374268
		endloop
	endfacet
	facet normal 0.9700312253748348 0 -0.24298029096574222
		outer loop
			vertex 5.884711742401123 0 -1.1705418825149536
			vertex 5.741641998291016 0 -1.7417080402374268
			vertex 5.741641998291016 1.5 -1.7417080402374268
		endloop
	endfacet
	facet normal 0.9415441195790218 0 -0.3368897013655432
		outer loop
			vertex 5.741641998291016 1.5 -1.7417080402374268
			vertex 5.741641998291016 0 -1.7417080402374268
			vertex 5.543277263641357 1.5 -2.296100616455078
		endloop
	endfacet
	facet normal 0.9415441195790218 0 -0.3368897013655432
		outer loop
			vertex 5.741641998291016 0 -1.7417080402374268
			vertex 5.543277263641357 0 -2.296100616455078
			vertex 5.543277263641357 1.5 -2.296100616455078
		endloop
	endfacet
	facet normal 0.9039893243709828 0 -0.42755502736290496
		outer loop
			vertex 5.543277263641357 1.5 -2.296100616455078
			vertex 5.543277263641357 0 -2.296100616455078
			vertex 5.29152774810791 1.5 -2.8283803462982178
		endloop
	endfacet
	facet normal 0.9039893243709828 0 -0.42755502736290496
		outer loop
			vertex 5.543277263641357 0 -2.296100616455078
			vertex 5.29152774810791 0 -2.8283803462982178
			vertex 5.29152774810791 1.5 -2.8283803462982178
		endloop
	endfacet
	facet normal 0.8577285673462682 0 -0.5141028153571211
		outer loop
			vertex 5.29152774810791 1.5 -2.8283803462982178
			vertex 5.29152774810791 0 -2.8283803462982178
			vertex 4.9888176918029785 1.5 -3.333421468734741
		endloop
	endfacet
	facet normal 0.8577285673462682 0 -0.5141028153571211
		outer loop
			vertex 5.29152774810791 0 -2.8283803462982178
			vertex 4.9888176918029785 0 -3.333421468734741
			vertex 4.9888176918029785 1.5 -3.333421468734741
		endloop
	endfacet
	facet normal 0.803207702196346 0 -0.595699074308888
		outer loop
			vertex 4.9888176918029785 1.5 -3.333421468734741
			vertex 4.9888176918029785 0 -3.333421468734741
			vertex 4.638062953948975 1.5 -3.8063597679138184
		endloop
	endfacet
	facet normal 0.803207702196346 0 -0.595699074308888
		outer loop
			vertex 4.9888176918029785 0 -3.333421468734741
			vertex 4.638062953948975 0 -3.8063597679138184
			vertex 4.638062953948975 1.5 -3.8063597679138184
		endloop
	endfacet
	facet normal 0.7409505705740846 0 -0.6715595669528792
		outer loop
			vertex 4.638062953948975 1.5 -3.8063597679138184
			vertex 4.638062953948975 0 -3.8063597679138184
			vertex 4.242640495300293 1.5 -4.242640495300293
		endloop
	endfacet
	facet normal 0.7409505705740846 0 -0.6715595669528792
		outer loop
			vertex 4.638062953948975 0 -3.8063597679138184
			vertex 4.242640495300293 0 -4.242640495300293
			vertex 4.242640495300293 1.5 -4.242640495300293
		endloop
	endfacet
	facet normal 0.6715595669528792 0 -0.7409505705740846
		outer loop
			vertex 4.242640495300293 1.5 -4.242640495300293
			vertex 4.242640495300293 0 -4.242640495300293
			vertex 3.8063597679138184 1.5 -4.638062953948975
		endloop
	endfacet
	facet normal 0.6715595669528792 0 -0.7409505705740846
		outer loop
			vertex 4.242640495300293 0 -4.242640495300293
			vertex 3.8063597679138184 0 -4.638062953948975
			vertex 3.8063597679138184 1.5 -4.638062953948975
		endloop
	endfacet
	facet normal 0.595699074308888 0 -0.803207702196346
		outer loop
			vertex 3.8063597679138184 1.5 -4.638062953948975
			vertex 3.8063597679138184 0 -4.638062953948975
			vertex 3.333421468734741 1.5 -4.9888176918029785
		endloop
	endfacet
	facet normal 0.595699074308888 0 -0.803207702196346
		outer loop
			vertex 3.8063597679138184 0 -4.638062953948975
			vertex 3.333421468734741 0 -4.9888176918029785
			vertex 3.333421468734741 1.5 -4.9888176918029785
		endloop
	endfacet
	facet normal 0.5141028153571211 0 -0.8577285673462682
		outer loop
			vertex 3.333421468734741 1.5 -4.9888176918029785
			vertex 3.333421468734741 0 -4.9888176918029785
			vertex 2.8283803462982178 1.5 -5.29152774810791
		endloop
	endfacet
	facet normal 0.5141028153571211 0 -0.8577285673462682
		outer loop
			vertex 3.333421468734741 0 -4.9888176918029785
			vertex 2.8283803462982178 0 -5.29152774810791
			vertex 2.8283803462982178 1.5 -5.29152774810791
		endloop
	endfacet
	facet normal 0.42755502736290496 0 -0.9039893243709828
		outer loop
			vertex 2.8283803462982178 1.5 -5.29152774810791
			vertex 2.8283803462982178 0 -5.29152774810791
			vertex 2.296100616455078 1.5 -5.543277263641357
		endloop
	endfacet
	facet normal 0.42755502736290496 0 -0.9039893243709828
		outer loop
			vertex 2.8283803462982178 0 -5.29152774810791
			vertex 2.296100616455078 0 -5.543277263641357
			vertex 2.296100616455078 1.5 -5.543277263641357
		endloop
	endfacet
	facet normal 0.3368897013655432 0 -0.9415441195790218
		outer loop
			vertex 2.296100616455078 1.5 -5.543277263641357
			vertex 2.296100616455078 0 -5.543277263641357
			vertex 1.7417080402374268 1.5 -5.741641998291016
		endloop
	endfacet
	facet normal 0.3368897013655432 0 -0.9415441195790218
		outer loop
			vertex 2.296100616455078 0 -5.543277263641357
			vertex 1.7417080402374268 0 -5.741641998291016
			vertex 1.7417080402374268 1.5 -5.741641998291016
		endloop
	endfacet
	facet normal 0.24298029096574222 0 -0.9700312253748348
		outer loop
			vertex 1.7417080402374268 1.5 -5.741641998291016
			vertex 1.7417080402374268 0 -5.741641998291016
			vertex 1.1705418825149536 1.5 -5.884711742401123
		endloop
	endfacet
	facet normal 0.24298029096574222 0 -0.9700312253748348
		outer loop
			vertex 1.7417080402374268 0 -5.741641998291016
			vertex 1.1705418825149536 0 -5.884711742401123
			vertex 1.1705418825149536 1.5 -5.884711742401123
		endloop
	endfacet
	facet normal 0.1467305081871233 0 -0.9891765049611464
		outer loop
			vertex 1.1705418825149536 1.5 -5.884711742401123
			vertex 1.1705418825149536 0 -5.884711742401123
			vertex 0.5881028175354004 1.5 -5.971108436584473
		endloop
	endfacet
	facet normal 0.1467305081871233 0 -0.9891765049611464
		outer loop
			vertex 1.1705418825149536 0 -5.884711742401123
			vertex 0.5881028175354004 0 -5.971108436584473
			vertex 0.5881028175354004 1.5 -5.971108436584473
		endloop
	endfacet
	facet normal 0.049067546665091104 0 -0.9987954624768122
		outer loop
			vertex 0.5881028175354004 1.5 -5.971108436584473
			vertex 0.5881028175354004 0 -5.971108436584473
			vertex 7.347880586115415e-16 1.5 -6
		endloop
	endfacet
	facet normal 0.049067546665091104 0 -0.9987954624768122
		outer loop
			vertex 0.5881028175354004 0 -5.971108436584473
			vertex 7.347880586115415e-16 0 -6
			vertex 7.347880586115415e-16 1.5 -6
		endloop
	endfacet
	facet normal -0.04906754666509098 0 -0.9987954624768122
		outer loop
			vertex 7.347880586115415e-16 1.5 -6
			vertex 7.347880586115415e-16 0 -6
			vertex -0.5881028175354004 1.5 -5.971108436584473
		endloop
	endfacet
	facet normal -0.04906754666509098 0 -0.9987954624768122
		outer loop
			vertex 7.347880586115415e-16 0 -6
			vertex -0.5881028175354004 0 -5.971108436584473
			vertex -0.5881028175354004 1.5 -5.971108436584473
		endloop
	endfacet
	facet normal -0.1467305081871233 0 -0.9891765049611464
		outer loop
			vertex -0.5881028175354004 1.5 -5.971108436584473
			vertex -0.5881028175354004 0 -5.971108436584473
			vertex -1.1705418825149536 1.5 -5.884711742401123
		endloop
	endfacet
	facet normal -0.1467305081871233 0 -0.9891765049611464
		outer loop
			vertex -0.5881028175354004 0 -5.971108436584473
			vertex -1.1705418825149536 0 -5.884711742401123
			vertex -1.1705418825149536 1.5 -5.884711742401123
		endloop
	endfacet
	facet normal -0.24298029096574222 0 -0.9700312253748348
		outer loop
			vertex -1.1705418825149536 1.5 -5.884711742401123
			vertex -1.1705418825149536 0 -5.884711742401123
			vertex -1.7417080402374268 1.5 -5.741641998291016
		endloop
	endfacet
	facet normal -0.24298029096574222 0 -0.9700312253748348
		outer loop
			vertex -1.1705418825149536 0 -5.884711742401123
			vertex -1.7417080402374268 0 -5.741641998291016
			vertex -1.7417080402374268 1.5 -5.741641998291016
		endloop
	endfacet
	facet normal -0.3368897013655432 0 -0.9415441195790218
		outer loop
			vertex -1.7417080402374268 1.5 -5.741641998291016
			vertex -1.7417080402374268 0 -5.741641998291016
			vertex -2.296100616455078 1.5 -5.543277263641357
		endloop
	endfacet
	facet normal -0.3368897013655432 0 -0.9415441195790218
		outer loop
			vertex -1.7417080402374268 0 -5.741641998291016
			vertex -2.296100616455078 0 -5.543277263641357
			vertex -2.296100616455078 1.5 -5.543277263641357
		endloop
	endfacet
	facet normal -0.42755502736290496 0 -0.9039893243709828
		outer loop
			vertex -2.296100616455078 1.5 -5.543277263641357
			vertex -2.296100616455078 0 -5.543277263641357
			vertex -2.8283803462982178 1.5 -5.29152774810791
		endloop
	endfacet
	facet normal -0.42755502736290496 0 -0.9039893243709828
		outer loop
			vertex -2.296100616455078 0 -5.543277263641357
			vertex -2.8283803462982178 0 -5.29152774810791
			vertex -2.8283803462982178 1.5 -5.29152774810791
		endloop
	endfacet
	facet normal -0.5141028153571211 0 -0.8577285673462682
		outer loop
			vertex -2.8283803462982178 1.5 -5.29152774810791
			vertex -2.8283803462982178 0 -5.29152774810791
			vertex -3.333421468734741 1.5 -4.9888176918029785
		endloop
	endfacet
	facet normal -0.5141028153571211 0 -0.8577285673462682
		outer loop
			vertex -2.8283803462982178 0 -5.29152774810791
			vertex -3.333421468734741 0 -4.9888176918029785
			vertex -3.333421468734741 1.5 -4.9888176918029785
		endloop
	endfacet
	facet normal -0.595699074308888 0 -0.803207702196346
		outer loop
			vertex -3.333421468734741 1.5 -4.9888176918029785
			vertex -3.333421468734741 0 -4.9888176918029785
			vertex -3.8063597679138184 1.5 -4.638062953948975
		endloop
	endfacet
	facet normal -0.595699074308888 0 -0.803207702196346
		outer loop
			vertex -3.333421468734741 0 -4.9888176918029785
			vertex -3.8063597679138184 0 -4.638062953948975
			vertex -3.8063597679138184 1.5 -4.638062953948975
		endloop
	endfacet
	facet normal -0.6715595669528792 0 -0.7409505705740846
		outer loop
			vertex -3.8063597679138184 1.5 -4.638062953948975
			vertex -3.8063597679138184 0 -4.638062953948975
			vertex -4.242640495300293 1.5 -4.242640495300293
		endloop
	endfacet
	facet normal -0.6715595669528792 0 -0.7409505705740846
		outer loop
			vertex -3.8063597679138184 0 -4.638062953948975
			vertex -4.242640495300293 0 -4.242640495300293
			vertex -4.242640495300293 1.5 -4.242640495300293
		endloop
	endfacet
	facet normal -0.7409505705740846 0 -0.6715595669528792
		outer loop
			vertex -4.242640495300293 1.5 -4.242640495300293
			vertex -4.242640495300293 0 -4.242640495300293
			vertex -4.638062953948975 1.5 -3.8063597679138184
		endloop
	endfacet
	facet normal -0.7409505705740846 0 -0.6715595669528792
		outer loop
			vertex -4.242640495300293 0 -4.242640495300293
			vertex -4.638062953948975 0 -3.8063597679138184
			vertex -4.638062953948975 1.5 -3.8063597679138184
		endloop
	endfacet
	facet normal -0.803207702196346 0 -0.595699074308888
		outer loop
			vertex -4.638062953948975 1.5 -3.8063597679138184
			vertex -4.638062953948975 0 -3.8063597679138184
			vertex -4.9888176918029785 1.5 -3.333421468734741
		endloop
	endfacet
	facet normal -0.803207702196346 0 -0.595699074308888
		outer loop
			vertex -4.638062953948975 0 -3.8063597679138184
			vertex -4.9888176918029785 0 -3.333421468734741
			vertex -4.9888176918029785 1.5 -3.333421468734741
		endloop
	endfacet
	facet normal -0.8577285673462682 0 -0.5141028153571211
		outer loop
			vertex -4.9888176918029785 1.5 -3.333421468734741
			vertex -4.9888176918029785 0 -3.333421468734741
			vertex -5.29152774810791 1.5 -2.8283803462982178
		endloop
	endfacet
	facet normal -0.8577285673462682 0 -0.5141028153571211
		outer loop
			vertex -4.9888176918029785 0 -3.333421468734741
			vertex -5.29152774810791 0 -2.8283803462982178
			vertex -5.29152774810791 1.5 -2.8283803462982178
		endloop
	endfacet
	facet normal -0.9039893243709828 0 -0.42755502736290496
		outer loop
			vertex -5.29152774810791 1.5 -2.8283803462982178
			vertex -5.29152774810791 0 -2.8283803462982178
			vertex -5.543277263641357 1.5 -2.296100616455078
		endloop
	endfacet
	facet normal -0.9039893243709828 0 -0.42755502736290496
		outer loop
			vertex -5.29152774810791 0 -2.8283803462982178
			vertex -5.543277263641357 0 -2.296100616455078
			vertex -5.543277263641357 1.5 -2.296100616455078
		endloop
	endfacet
	facet normal -0.9415441195790218 0 -0.3368897013655432
		outer loop
			vertex -5.543277263641357 1.5 -2.296100616455078
			vertex -5.543277263641357 0 -2.296100616455078
			vertex -5.741641998291016 1.5 -1.7417080402374268
		endloop
	endfacet
	facet normal -0.9415441195790218 0 -0.3368897013655432
		outer loop
			vertex -5.543277263641357 0 -2.296100616455078
			vertex -5.741641998291016 0 -1.7417080402374268
			vertex -5.741641998291016 1.5 -1.7417080402374268
		endloop
	endfacet
	facet normal -0.9700312253748348 0 -0.24298029096574222
		outer loop
			vertex -5.741641998291016 1.5 -1.7417080402374268
			vertex -5.741641998291016 0 -1.7417080402374268
			vertex -5.884711742401123 1.5 -1.1705418825149536
		endloop
	endfacet
	facet normal -0.9700312253748348 0 -0.24298029096574222
		outer loop
			vertex -5.741641998291016 0 -1.7417080402374268
			vertex -5.884711742401123 0 -1.1705418825149536
			vertex -5.884711742401123 1.5 -1.1705418825149536
		endloop
	endfacet
	facet normal -0.9891765049611464 0 -0.1467305081871233
		outer loop
			vertex -5.884711742401123 1.5 -1.1705418825149536
			vertex -5.884711742401123 0 -1.1705418825149536
			vertex -5.971108436584473 1.5 -0.5881028175354004
		endloop
	endfacet
	facet normal -0.9891765049611464 0 -0.1467305081871233
		outer loop
			vertex -5.884711742401123 0 -1.1705418825149536
			vertex -5.971108436584473 0 -0.5881028175354004
			vertex -5.971108436584473 1.5 -0.5881028175354004
		endloop
	endfacet
	facet normal -0.9987954624768122 0 -0.04906754666509113
		outer loop
			vertex -5.971108436584473 1.5 -0.5881028175354004
			vertex -5.971108436584473 0 -0.5881028175354004
			vertex -6 1.5 -1.1021821408568715e-15
		endloop
	endfacet
	facet normal -0.9987954624768122 0 -0.04906754666509113
		outer loop
			vertex -5.971108436584473 0 -0.5881028175354004
			vertex -6 0 -1.1021821408568715e-15
			vertex -6 1.5 -1.1021821408568715e-15
		endloop
	endfacet
	facet normal -0.9987954624768122 0 0.04906754666509095
		outer loop
			vertex -6 1.5 -1.1021821408568715e-15
			vertex -6 0 -1.1021821408568715e-15
			vertex -5.971108436584473 1.5 0.5881028175354004
		endloop
	endfacet
	facet normal -0.9987954624768122 0 0.04906754666509095
		outer loop
			vertex -6 0 -1.1021821408568715e-15
			vertex -5.971108436584473 0 0.5881028175354004
			vertex -5.971108436584473 1.5 0.5881028175354004
		endloop
	endfacet
	facet normal -0.9891765049611464 0 0.1467305081871233
		outer loop
			vertex -5.971108436584473 1.5 0.5881028175354004
			vertex -5.971108436584473 0 0.5881028175354004
			vertex -5.884711742401123 1.5 1.1705418825149536
		endloop
	endfacet
	facet normal -0.9891765049611464 0 0.1467305081871233
		outer loop
			vertex -5.971108436584473 0 0.5881028175354004
			vertex -5.884711742401123 0 1.1705418825149536
			vertex -5.884711742401123 1.5 1.1705418825149536
		endloop
	endfacet
	facet normal -0.9700312253748348 0 0.24298029096574222
		outer loop
			vertex -5.884711742401123 1.5 1.1705418825149536
			vertex -5.884711742401123 0 1.1705418825149536
			vertex -5.741641998291016 1.5 1.7417080402374268
		endloop
	endfacet
	facet normal -0.9700312253748348 0 0.24298029096574222
		outer loop
			vertex -5.884711742401123 0 1.1705418825149536
			vertex -5.741641998291016 0 1.7417080402374268
			vertex -5.741641998291016 1.5 1.7417080402374268
		endloop
	endfacet
	facet normal -0.9415441195790218 0 0.3368897013655432
		outer loop
			vertex -5.741641998291016 1.5 1.7417080402374268
			vertex -5.741641998291016 0 1.7417080402374268
			vertex -5.543277263641357 1.5 2.296100616455078
		endloop
	endfacet
	facet normal -0.9415441195790218 0 0.3368897013655432
		outer loop
			vertex -5.741641998291016 0 1.7417080402374268
			vertex -5.543277263641357 0 2.296100616455078
			vertex -5.543277263641357 1.5 2.296100616455078
		endloop
	endfacet
	facet normal -0.9039893243709828 0 0.42755502736290496
		outer loop
			vertex -5.543277263641357 1.5 2.296100616455078
			vertex -5.543277263641357 0 2.296100616455078
			vertex -5.29152774810791 1.5 2.8283803462982178
		endloop
	endfacet
	facet normal -0.9039893243709828 0 0.42755502736290496
		outer loop
			vertex -5.543277263641357 0 2.296100616455078
			vertex -5.29152774810791 0 2.8283803462982178
			vertex -5.29152774810791 1.5 2.8283803462982178
		endloop
	endfacet
	facet normal -0.8577285673462682 0 0.5141028153571211
		outer loop
			vertex -5.29152774810791 1.5 2.8283803462982178
			vertex -5.29152774810791 0 2.8283803462982178
			vertex -4.9888176918029785 1.5 3.333421468734741
		endloop
	endfacet
	facet normal -0.8577285673462682 0 0.5141028153571211
		outer loop
			vertex -5.29152774810791 0 2.8283803462982178
			vertex -4.9888176918029785 0 3.333421468734741
			vertex -4.9888176918029785 1.5 3.333421468734741
		endloop
	endfacet
	facet normal -0.803207702196346 0 0.595699074308888
		outer loop
			vertex -4.9888176918029785 1.5 3.333421468734741
			vertex -4.9888176918029785 0 3.333421468734741
			vertex -4.638062953948975 1.5 3.8063597679138184
		endloop
	endfacet
	facet normal -0.803207702196346 0 0.595699074308888
		outer loop
			vertex -4.9888176918029785 0 3.333421468734741
			vertex -4.638062953948975 0 3.8063597679138184
			vertex -4.638062953948975 1.5 3.8063597679138184
		endloop
	endfacet
	facet normal -0.7409505705740846 0 0.6715595669528792
		outer loop
			vertex -4.638062953948975 1.5 3.8063597679138184
			vertex -4.638062953948975 0 3.8063597679138184
			vertex -4.242640495300293 1.5 4.242640495300293
		endloop
	endfacet
	facet normal -0.7409505705740846 0 0.6715595669528792
		outer loop
			vertex -4.638062953948975 0 3.8063597679138184
			vertex -4.242640495300293 0 4.242640495300293
			vertex -4.242640495300293 1.5 4.242640495300293
		endloop
	endfacet
	facet normal -0.6715595669528792 0 0.7409505705740846
		outer loop
			vertex -4.242640495300293 1.5 4.242640495300293
			vertex -4.242640495300293 0 4.242640495300293
			vertex -3.8063597679138184 1.5 4.638062953948975
		endloop
	endfacet
	facet normal -0.6715595669528792 0 0.7409505705740846
		outer loop
			vertex -4.242640495300293 0 4.242640495300293
			vertex -3.8063597679138184 0 4.638062953948975
			vertex -3.8063597679138184 1.5 4.638062953948975
		endloop
	endfacet
	facet normal -0.595699074308888 0 0.803207702196346
		outer loop
			vertex -3.8063597679138184 1.5 4.638062953948975
			vertex -3.8063597679138184 0 4.638062953948975
			vertex -3.333421468734741 1.5 4.9888176918029785
		endloop
	endfacet
	facet normal -0.595699074308888 0 0.803207702196346
		outer loop
			vertex -3.8063597679138184 0 4.638062953948975
			vertex -3.333421468734741 0 4.9888176918029785
			vertex -3.333421468734741 1.5 4.9888176918029785
		endloop
	endfacet
	facet normal -0.5141028153571211 0 0.8577285673462682
		outer loop
			vertex -3.333421468734741 1.5 4.9888176918029785
			vertex -3.333421468734741 0 4.9888176918029785
			vertex -2.8283803462982178 1.5 5.29152774810791
		endloop
	endfacet
	facet normal -0.5141028153571211 0 0.8577285673462682
		outer loop
			vertex -3.333421468734741 0 4.9888176918029785
			vertex -2.8283803462982178 0 5.29152774810791
			vertex -2.8283803462982178 1.5 5.29152774810791
		endloop
	endfacet
	facet normal -0.42755502736290496 0 0.9039893243709828
		outer loop
			vertex -2.8283803462982178 1.5 5.29152774810791
			vertex -2.8283803462982178 0 5.29152774810791
			vertex -2.296100616455078 1.5 5.543277263641357
		endloop
	endfacet
	facet normal -0.42755502736290496 0 0.9039893243709828
		outer loop
			vertex -2.8283803462982178 0 5.29152774810791
			vertex -2.296100616455078 0 5.543277263641357
			vertex -2.296100616455078 1.5 5.543277263641357
		endloop
	endfacet
	facet normal -0.3368897013655432 0 0.9415441195790218
		outer loop
			vertex -2.296100616455078 1.5 5.543277263641357
			vertex -2.296100616455078 0 5.543277263641357
			vertex -1.7417080402374268 1.5 5.741641998291016
		endloop
	endfacet
	facet normal -0.3368897013655432 0 0.9415441195790218
		outer loop
			vertex -2.296100616455078 0 5.543277263641357
			vertex -1.7417080402374268 0 5.741641998291016
			vertex -1.7417080402374268 1.5 5.741641998291016
		endloop
	endfacet
	facet normal -0.24298029096574222 0 0.9700312253748348
		outer loop
			vertex -1.7417080402374268 1.5 5.741641998291016
			vertex -1.7417080402374268 0 5.741641998291016
			vertex -1.1705418825149536 1.5 5.884711742401123
		endloop
	endfacet
	facet normal -0.24298029096574222 0 0.9700312253748348
		outer loop
			vertex -1.7417080402374268 0 5.741641998291016
			vertex -1.1705418825149536 0 5.884711742401123
			vertex -1.1705418825149536 1.5 5.884711742401123
		endloop
	endfacet
	facet normal -0.1467305081871233 0 0.9891765049611464
		outer loop
			vertex -1.1705418825149536 1.5 5.884711742401123
			vertex -1.1705418825149536 0 5.884711742401123
			vertex -0.5881028175354004 1.5 5.971108436584473
		endloop
	endfacet
	facet normal -0.1467305081871233 0 0.9891765049611464
		outer loop
			vertex -1.1705418825149536 0 5.884711742401123
			vertex -0.5881028175354004 0 5.971108436584473
			vertex -0.5881028175354004 1.5 5.971108436584473
		endloop
	endfacet
	facet normal -0.04906754666509116 0 0.9987954624768122
		outer loop
			vertex -0.5881028175354004 1.5 5.971108436584473
			vertex -0.5881028175354004 0 5.971108436584473
			vertex -1.469576117223083e-15 1.5 6
		endloop
	endfacet
	facet normal -0.04906754666509116 0 0.9987954624768122
		outer loop
			vertex -0.5881028175354004 0 5.971108436584473
			vertex -1.469576117223083e-15 0 6
			vertex -1.469576117223083e-15 1.5 6
		endloop
	endfacet
	facet normal 0 1 0
		outer loop
			vertex 0 1.5 6
			vertex 0.5881028175354004 1.5 5.971108436584473
			vertex 0 1.5 0
		endloop
	endfacet
	facet normal 0 1 0
		outer loop
			vertex 0.5881028175354004 1.5 5.971108436584473
			vertex 1.1705418825149536 1.5 5.884711742401123
			vertex 0 1.5 0
		endloop
	endfacet
	facet normal 0 1 0
		outer loop
			vertex 1.1705418825149536 1.5 5.884711742401123
			vertex 1.7417080402374268 1.5 5.741641998291016
			vertex 0 1.5 0
		endloop
	endfacet
	facet normal 0 1 0
		outer loop
			vertex 1.7417080402374268 1.5 5.741641998291016
			vertex 2.296100616455078 1.5 5.543277263641357
			vertex 0 1.5 0
		endloop
	endfacet
	facet normal 0 1 0
		outer loop
			vertex 2.296100616455078 1.5 5.543277263641357
			vertex 2.8283803462982178 1.5 5.29152774810791
			vertex 0 1.5 0
		endloop
	endfacet
	facet normal 0 1 0
		outer loop
			vertex 2.8283803462982178 1.5 5.29152774810791
			vertex 3.333421468734741 1.5 4.9888176918029785
			vertex 0 1.5 0
		endloop
	endfacet
	facet normal 0 1 0
		outer loop
			vertex 3.333421468734741 1.5 4.9888176918029785
			vertex 3.8063597679138184 1.5 4.638062953948975
			vertex 0 1.5 0
		endloop
	endfacet
	facet normal 0 1 0
		outer loop
			vertex 3.8063597679138184 1.5 4.638062953948975
			vertex 4.242640495300293 1.5 4.242640495300293
			vertex 0 1.5 0
		endloop
	endfacet
	facet normal 0 1 0
		outer loop
			vertex 4.242640495300293 1.5 4.242640495300293
			vertex 4.638062953948975 1.5 3.8063597679138184
			vertex 0 1.5 0
		endloop
	endfacet
	facet normal 0 1 0
		outer loop
			vertex 4.638062953948975 1.5 3.8063597679138184
			vertex 4.9888176918029785 1.5 3.333421468734741
			vertex 0 1.5 0
		endloop
	endfacet
	facet normal 0 1 0
		outer loop
			vertex 4.9888176918029785 1.5 3.333421468734741
			vertex 5.29152774810791 1.5 2.8283803462982178
			vertex 0 1.5 0
		endloop
	endfacet
	facet normal 0 1 0
		outer loop
			vertex 5.29152774810791 1.5 2.8283803462982178
			vertex 5.543277263641357 1.5 2.296100616455078
			vertex 0 1.5 0
		endloop
	endfacet
	facet normal 0 1 0
		outer loop
			vertex 5.543277263641357 1.5 2.296100616455078
			vertex 5.741641998291016 1.5 1.7417080402374268
			vertex 0 1.5 0
		endloop
	endfacet
	facet normal 0 1 0
		outer loop
			vertex 5.741641998291016 1.5 1.7417080402374268
			vertex 5.884711742401123 1.5 1.1705418825149536
			vertex 0 1.5 0
		endloop
	endfacet
	facet normal 0 1 0
		outer loop
			vertex 5.884711742401123 1.5 1.1705418825149536
			vertex 5.971108436584473 1.5 0.5881028175354004
			vertex 0 1.5 0
		endloop
	endfacet
	facet normal 0 1 0
		outer loop
			vertex 5.971108436584473 1.5 0.5881028175354004
			vertex 6 1.5 3.6739402930577075e-16
			vertex 0 1.5 0
		endloop
	endfacet
	facet normal 0 1 0
		outer loop
			vertex 6 1.5 3.6739402930577075e-16
			vertex 5.971108436584473 1.5 -0.5881028175354004
			vertex 0 1.5 0
		endloop
	endfacet
	facet normal 0 1 0
		outer loop
			vertex 5.971108436584473 1.5 -0.5881028175354004
			vertex 5.884711742401123 1.5 -1.1705418825149536
			vertex 0 1.5 0
		endloop
	endfacet
	facet normal 0 1 0
		outer loop
			vertex 5.884711742401123 1.5 -1.1705418825149536
			vertex 5.741641998291016 1.5 -1.7417080402374268
			vertex 0 1.5 0
		endloop
	endfacet
	facet normal 0 1 0
		outer loop
			vertex 5.741641998291016 1.5 -1.7417080402374268
			vertex 5.543277263641357 1.5 -2.296100616455078
			vertex 0 1.5 0
		endloop
	endfacet
	facet normal 0 1 0
		outer loop
			vertex 5.543277263641357 1.5 -2.296100616455078
			vertex 5.29152774810791 1.5 -2.8283803462982178
			vertex 0 1.5 0
		endloop
	endfacet
	facet normal 0 1 0
		outer loop
			vertex 5.29152774810791 1.5 -2.8283803462982178
			vertex 4.9888176918029785 1.5 -3.333421468734741
			vertex 0 1.5 0
		endloop
	endfacet
	facet normal 0 1 0
		outer loop
			vertex 4.9888176918029785 1.5 -3.333421468734741
			vertex 4.638062953948975 1.5 -3.8063597679138184
			vertex 0 1.5 0
		endloop
	endfacet
	facet normal 0 1 0
		outer loop
			vertex 4.638062953948975 1.5 -3.8063597679138184
			vertex 4.242640495300293 1.5 -4.242640495300293
			vertex 0 1.5 0
		endloop
	endfacet
	facet normal 0 1 0
		outer loop
			vertex 4.242640495300293 1.5 -4.242640495300293
			vertex 3.8063597679138184 1.5 -4.638062953948975
			vertex 0 1.5 0
		endloop
	endfacet
	facet normal 0 1 0
		outer loop
			vertex 3.8063597679138184 1.5 -4.638062953948975
			vertex 3.333421468734741 1.5 -4.9888176918029785
			vertex 0 1.5 0
		endloop
	endfacet
	facet normal 0 1 0
		outer loop
			vertex 3.333421468734741 1.5 -4.9888176918029785
			vertex 2.8283803462982178 1.5 -5.29152774810791
			vertex 0 1.5 0
		endloop
	endfacet
	facet normal 0 1 0
		outer loop
			vertex 2.8283803462982178 1.5 -5.29152774810791
			vertex 2.296100616455078 1.5 -5.543277263641357
			vertex 0 1.5 0
		endloop
	endfacet
	facet normal 0 1 0
		outer loop
			vertex 2.296100616455078 1.5 -5.543277263641357
			vertex 1.7417080402374268 1.5 -5.741641998291016
			vertex 0 1.5 0
		endloop
	endfacet
	facet normal 0 1 0
		outer loop
			vertex 1.7417080402374268 1.5 -5.741641998291016
			vertex 1.1705418825149536 1.5 -5.884711742401123
			vertex 0 1.5 0
		endloop
	endfacet
	facet normal 0 1 0
		outer loop
			vertex 1.1705418825149536 1.5 -5.884711742401123
			vertex 0.5881028175354004 1.5 -5.971108436584473
			vertex 0 1.5 0
		endloop
	endfacet
	facet normal 0 1 0
		outer loop
			vertex 0.5881028175354004 1.5 -5.971108436584473
			vertex 7.347880586115415e-16 1.5 -6
			vertex 0 1.5 0
		endloop
	endfacet
	facet normal 0 1 0
		outer loop
			vertex 7.347880586115415e-16 1.5 -6
			vertex -0.5881028175354004 1.5 -5.971108436584473
			vertex 0 1.5 0
		endloop
	endfacet
	facet normal 0 1 0
		outer loop
			vertex -0.5881028175354004 1.5 -5.971108436584473
			vertex -1.1705418825149536 1.5 -5.884711742401123
			vertex 0 1.5 0
		endloop
	endfacet
	facet normal 0 1 0
		outer loop
			vertex -1.1705418825149536 1.5 -5.884711742401123
			vertex -1.7417080402374268 1.5 -5.741641998291016
			vertex 0 1.5 0
		endloop
	endfacet
	facet normal 0 1 0
		outer loop
			vertex -1.7417080402374268 1.5 -5.741641998291016
			vertex -2.296100616455078 1.5 -5.543277263641357
			vertex 0 1.5 0
		endloop
	endfacet
	facet normal 0 1 0
		outer loop
			vertex -2.296100616455078 1.5 -5.543277263641357
			vertex -2.8283803462982178 1.5 -5.29152774810791
			vertex 0 1.5 0
		endloop
	endfacet
	facet normal 0 1 0
		outer loop
			vertex -2.8283803462982178 1.5 -5.29152774810791
			vertex -3.333421468734741 1.5 -4.9888176918029785
			vertex 0 1.5 0
		endloop
	endfacet
	facet normal 0 1 0
		outer loop
			vertex -3.333421468734741 1.5 -4.9888176918029785
			vertex -3.8063597679138184 1.5 -4.638062953948975
			vertex 0 1.5 0
		endloop
	endfacet
	facet normal 0 1 0
		outer loop
			vertex -3.8063597679138184 1.5 -4.638062953948975
			vertex -4.242640495300293 1.5 -4.242640495300293
			vertex 0 1.5 0
		endloop
	endfacet
	facet normal 0 1 0
		outer loop
			vertex -4.242640495300293 1.5 -4.242640495300293
			vertex -4.638062953948975 1.5 -3.8063597679138184
			vertex 0 1.5 0
		endloop
	endfacet
	facet normal 0 1 0
		outer loop
			vertex -4.638062953948975 1.5 -3.8063597679138184
			vertex -4.9888176918029785 1.5 -3.333421468734741
			vertex 0 1.5 0
		endloop
	endfacet
	facet normal 0 1 0
		outer loop
			vertex -4.9888176918029785 1.5 -3.333421468734741
			vertex -5.29152774810791 1.5 -2.8283803462982178
			vertex 0 1.5 0
		endloop
	endfacet
	facet normal 0 1 0
		outer loop
			vertex -5.29152774810791 1.5 -2.8283803462982178
			vertex -5.543277263641357 1.5 -2.296100616455078
			vertex 0 1.5 0
		endloop
	endfacet
	facet normal 0 1 0
		outer loop
			vertex -5.543277263641357 1.5 -2.296100616455078
			vertex -5.741641998291016 1.5 -1.7417080402374268
			vertex 0 1.5 0
		endloop
	endfacet
	facet normal 0 1 0
		outer loop
			vertex -5.741641998291016 1.5 -1.7417080402374268
			vertex -5.884711742401123 1.5 -1.1705418825149536
			vertex 0 1.5 0
		endloop
	endfacet
	facet normal 0 1 0
		outer loop
			vertex -5.884711742401123 1.5 -1.1705418825149536
			vertex -5.971108436584473 1.5 -0.5881028175354004
			vertex 0 1.5 0
		endloop
	endfacet
	facet normal 0 1 0
		outer loop
			vertex -5.971108436584473 1.5 -0.5881028175354004
			vertex -6 1.5 -1.1021821408568715e-15
			vertex 0 1.5 0
		endloop
	endfacet
	facet normal 0 1 0
		outer loop
			vertex -6 1.5 -1.1021821408568715e-15
			vertex -5.971108436584473 1.5 0.5881028175354004
			vertex 0 1.5 0
		endloop
	endfacet
	facet normal 0 1 0
		outer loop
			vertex -5.971108436584473 1.5 0.5881028175354004
			vertex -5.884711742401123 1.5 1.1705418825149536
			vertex 0 1.5 0
		endloop
	endfacet
	facet normal 0 1 0
		outer loop
			vertex -5.884711742401123 1.5 1.1705418825149536
			vertex -5.741641998291016 1.5 1.7417080402374268
			vertex 0 1.5 0
		endloop
	endfacet
	facet normal 0 1 0
		outer loop
			vertex -5.741641998291016 1.5 1.7417080402374268
			vertex -5.543277263641357 1.5 2.296100616455078
			vertex 0 1.5 0
		endloop
	endfacet
	facet normal 0 1 0
		outer loop
			vertex -5.543277263641357 1.5 2.296100616455078
			vertex -5.29152774810791 1.5 2.8283803462982178
			vertex 0 1.5 0
		endloop
	endfacet
	facet normal 0 1 0
		outer loop
			vertex -5.29152774810791 1.5 2.8283803462982178
			vertex -4.9888176918029785 1.5 3.333421468734741
			vertex 0 1.5 0
		endloop
	endfacet
	facet normal 0 1 0
		outer loop
			vertex -4.9888176918029785 1.5 3.333421468734741
			vertex -4.638062953948975 1.5 3.8063597679138184
			vertex 0 1.5 0
		endloop
	endfacet
	facet normal 0 1 0
		outer loop
			vertex -4.638062953948975 1.5 3.8063597679138184
			vertex -4.242640495300293 1.5 4.242640495300293
			vertex 0 1.5 0
		endloop
	endfacet
	facet normal 0 1 0
		outer loop
			vertex -4.242640495300293 1.5 4.242640495300293
			vertex -3.8063597679138184 1.5 4.638062953948975
			vertex 0 1.5 0
		endloop
	endfacet
	facet normal 0 1 0
		outer loop
			vertex -3.8063597679138184 1.5 4.638062953948975
			vertex -3.333421468734741 1.5 4.9888176918029785
			vertex 0 1.5 0
		endloop
	endfacet
	facet normal 0 1 0
		outer loop
			vertex -3.333421468734741 1.5 4.9888176918029785
			vertex -2.8283803462982178 1.5 5.29152774810791
			vertex 0 1.5 0
		endloop
	endfacet
	facet normal 0 1 0
		outer loop
			vertex -2.8283803462982178 1.5 5.29152774810791
			vertex -2.296100616455078 1.5 5.543277263641357
			vertex 0 1.5 0
		endloop
	endfacet
	facet normal 0 1 0
		outer loop
			vertex -2.296100616455078 1.5 5.543277263641357
			vertex -1.7417080402374268 1.5 5.741641998291016
			vertex 0 1.5 0
		endloop
	endfacet
	facet normal 0 1 0
		outer loop
			vertex -1.7417080402374268 1.5 5.741641998291016
			vertex -1.1705418825149536 1.5 5.884711742401123
			vertex 0 1.5 0
		endloop
	endfacet
	facet normal 0 1 0
		outer loop
			vertex -1.1705418825149536 1.5 5.884711742401123
			vertex -0.5881028175354004 1.5 5.971108436584473
			vertex 0 1.5 0
		endloop
	endfacet
	facet normal 0 1 0
		outer loop
			vertex -0.5881028175354004 1.5 5.971108436584473
			vertex -1.469576117223083e-15 1.5 6
			vertex 0 1.5 0
		endloop
	endfacet
	facet normal 0 -1 0
		outer loop
			vertex 0.5881028175354004 0 5.971108436584473
			vertex 0 0 6
			vertex 0 0 0
		endloop
	endfacet
	facet normal 0 -1 0
		outer loop
			vertex 1.1705418825149536 0 5.884711742401123
			vertex 0.5881028175354004 0 5.971108436584473
			vertex 0 0 0
		endloop
	endfacet
	facet normal 0 -1 0
		outer loop
			vertex 1.7417080402374268 0 5.741641998291016
			vertex 1.1705418825149536 0 5.884711742401123
			vertex 0 0 0
		endloop
	endfacet
	facet normal 0 -1 0
		outer loop
			vertex 2.296100616455078 0 5.543277263641357
			vertex 1.7417080402374268 0 5.741641998291016
			vertex 0 0 0
		endloop
	endfacet
	facet normal 0 -1 0
		outer loop
			vertex 2.8283803462982178 0 5.29152774810791
			vertex 2.296100616455078 0 5.543277263641357
			vertex 0 0 0
		endloop
	endfacet
	facet normal 0 -1 0
		outer loop
			vertex 3.333421468734741 0 4.9888176918029785
			vertex 2.8283803462982178 0 5.29152774810791
			vertex 0 0 0
		endloop
	endfacet
	facet normal 0 -1 0
		outer loop
			vertex 3.8063597679138184 0 4.638062953948975
			vertex 3.333421468734741 0 4.9888176918029785
			vertex 0 0 0
		endloop
	endfacet
	facet normal 0 -1 0
		outer loop
			vertex 4.242640495300293 0 4.242640495300293
			vertex 3.8063597679138184 0 4.638062953948975
			vertex 0 0 0
		endloop
	endfacet
	facet normal 0 -1 0
		outer loop
			vertex 4.638062953948975 0 3.8063597679138184
			vertex 4.242640495300293 0 4.242640495300293
			vertex 0 0 0
		endloop
	endfacet
	facet normal 0 -1 0
		outer loop
			vertex 4.9888176918029785 0 3.333421468734741
			vertex 4.638062953948975 0 3.8063597679138184
			vertex 0 0 0
		endloop
	endfacet
	facet normal 0 -1 0
		outer loop
			vertex 5.29152774810791 0 2.8283803462982178
			vertex 4.9888176918029785 0 3.333421468734741
			vertex 0 0 0
		endloop
	endfacet
	facet normal 0 -1 0
		outer loop
			vertex 5.543277263641357 0 2.296100616455078
			vertex 5.29152774810791 0 2.8283803462982178
			vertex 0 0 0
		endloop
	endfacet
	facet normal 0 -1 0
		outer loop
			vertex 5.741641998291016 0 1.7417080402374268
			vertex 5.543277263641357 0 2.296100616455078
			vertex 0 0 0
		endloop
	endfacet
	facet normal 0 -1 0
		outer loop
			vertex 5.884711742401123 0 1.1705418825149536
			vertex 5.741641998291016 0 1.7417080402374268
			vertex 0 0 0
		endloop
	endfacet
	facet normal 0 -1 0
		outer loop
			vertex 5.971108436584473 0 0.5881028175354004
			vertex 5.884711742401123 0 1.1705418825149536
			vertex 0 0 0
		endloop
	endfacet
	facet normal 0 -1 0
		outer loop
			vertex 6 0 3.6739402930577075e-16
			vertex 5.971108436584473 0 0.5881028175354004
			vertex 0 0 0
		endloop
	endfacet
	facet normal 0 -1 0
		outer loop
			vertex 5.971108436584473 0 -0.5881028175354004
			vertex 6 0 3.6739402930577075e-16
			vertex 0 0 0
		endloop
	endfacet
	facet normal 0 -1 0
		outer loop
			vertex 5.884711742401123 0 -1.1705418825149536
			vertex 5.971108436584473 0 -0.5881028175354004
			vertex 0 0 0
		endloop
	endfacet
	facet normal 0 -1 0
		outer loop
			vertex 5.741641998291016 0 -1.7417080402374268
			vertex 5.884711742401123 0 -1.1705418825149536
			vertex 0 0 0
		endloop
	endfacet
	facet normal 0 -1 0
		outer loop
			vertex 5.543277263641357 0 -2.296100616455078
			vertex 5.741641998291016 0 -1.7417080402374268
			vertex 0 0 0
		endloop
	endfacet
	facet normal 0 -1 0
		outer loop
			vertex 5.29152774810791 0 -2.8283803462982178
			vertex 5.543277263641357 0 -2.296100616455078
			vertex 0 0 0
		endloop
	endfacet
	facet normal 0 -1 0
		outer loop
			vertex 4.9888176918029785 0 -3.333421468734741
			vertex 5.29152774810791 0 -2.8283803462982178
			vertex 0 0 0
		endloop
	endfacet
	facet normal 0 -1 0
		outer loop
			vertex 4.638062953948975 0 -3.8063597679138184
			vertex 4.9888176918029785 0 -3.333421468734741
			vertex 0 0 0
		endloop
	endfacet
	facet normal 0 -1 0
		outer loop
			vertex 4.242640495300293 0 -4.242640495300293
			vertex 4.638062953948975 0 -3.8063597679138184
			vertex 0 0 0
		endloop
	endfacet
	facet normal 0 -1 0
		outer loop
			vertex 3.8063597679138184 0 -4.638062953948975
			vertex 4.242640495300293 0 -4.242640495300293
			vertex 0 0 0
		endloop
	endfacet
	facet normal 0 -1 0
		outer loop
			vertex 3.333421468734741 0 -4.9888176918029785
			vertex 3.8063597679138184 0 -4.638062953948975
			vertex 0 0 0
		endloop
	endfacet
	facet normal 0 -1 0
		outer loop
			vertex 2.8283803462982178 0 -5.29152774810791
			vertex 3.333421468734741 0 -4.9888176918029785
			vertex 0 0 0
		endloop
	endfacet
	facet normal 0 -1 0
		outer loop
			vertex 2.296100616455078 0 -5.543277263641357
			vertex 2.8283803462982178 0 -5.29152774810791
			vertex 0 0 0
		endloop
	endfacet
	facet normal 0 -1 0
		outer loop
			vertex 1.7417080402374268 0 -5.741641998291016
			vertex 2.296100616455078 0 -5.543277263641357
			vertex 0 0 0
		endloop
	endfacet
	facet normal 0 -1 0
		outer loop
			vertex 1.1705418825149536 0 -5.884711742401123
			vertex 1.7417080402374268 0 -5.741641998291016
			vertex 0 0 0
		endloop
	endfacet
	facet normal 0 -1 0
		outer loop
			vertex 0.5881028175354004 0 -5.971108436584473
			vertex 1.1705418825149536 0 -5.884711742401123
			vertex 0 0 0
		endloop
	endfacet
	facet normal 0 -1 0
		outer loop
			vertex 7.347880586115415e-16 0 -6
			vertex 0.5881028175354004 0 -5.971108436584473
			vertex 0 0 0
		endloop
	endfacet
	facet normal 0 -1 0
		outer loop
			vertex -0.5881028175354004 0 -5.971108436584473
			vertex 7.347880586115415e-16 0 -6
			vertex 0 0 0
		endloop
	endfacet
	facet normal 0 -1 0
		outer loop
			vertex -1.1705418825149536 0 -5.884711742401123
			vertex -0.5881028175354004 0 -5.971108436584473
			vertex 0 0 0
		endloop
	endfacet
	facet normal 0 -1 0
		outer loop
			vertex -1.7417080402374268 0 -5.741641998291016
			vertex -1.1705418825149536 0 -5.884711742401123
			vertex 0 0 0
		endloop
	endfacet
	facet normal 0 -1 0
		outer loop
			vertex -2.296100616455078 0 -5.543277263641357
			vertex -1.7417080402374268 0 -5.741641998291016
			vertex 0 0 0
		endloop
	endfacet
	facet normal 0 -1 0
		outer loop
			vertex -2.8283803462982178 0 -5.29152774810791
			vertex -2.296100616455078 0 -5.543277263641357
			vertex 0 0 0
		endloop
	endfacet
	facet normal 0 -1 0
		outer loop
			vertex -3.333421468734741 0 -4.9888176918029785
			vertex -2.8283803462982178 0 -5.29152774810791
			vertex 0 0 0
		endloop
	endfacet
	facet normal 0 -1 0
		outer loop
			vertex -3.8063597679138184 0 -4.638062953948975
			vertex -3.333421468734741 0 -4.9888176918029785
			vertex 0 0 0
		endloop
	endfacet
	facet normal 0 -1 0
		outer loop
			vertex -4.242640495300293 0 -4.242640495300293
			vertex -3.8063597679138184 0 -4.638062953948975
			vertex 0 0 0
		endloop
	endfacet
	facet normal 0 -1 0
		outer loop
			vertex -4.638062953948975 0 -3.8063597679138184
			vertex -4.242640495300293 0 -4.242640495300293
			vertex 0 0 0
		endloop
	endfacet
	facet normal 0 -1 0
		outer loop
			vertex -4.9888176918029785 0 -3.333421468734741
			vertex -4.638062953948975 0 -3.8063597679138184
			vertex 0 0 0
		endloop
	endfacet
	facet normal 0 -1 0
		outer loop
			vertex -5.29152774810791 0 -2.8283803462982178
			vertex -4.9888176918029785 0 -3.333421468734741
			vertex 0 0 0
		endloop
	endfacet
	facet normal 0 -1 0
		outer loop
			vertex -5.543277263641357 0 -2.296100616455078
			vertex -5.29152774810791 0 -2.8283803462982178
			vertex 0 0 0
		endloop
	endfacet
	facet normal 0 -1 0
		outer loop
			vertex -5.741641998291016 0 -1.7417080402374268
			vertex -5.543277263641357 0 -2.296100616455078
			vertex 0 0 0
		endloop
	endfacet
	facet normal 0 -1 0
		outer loop
			vertex -5.884711742401123 0 -1.1705418825149536
			vertex -5.741641998291016 0 -1.7417080402374268
			vertex 0 0 0
		endloop
	endfacet
	facet normal 0 -1 0
		outer loop
			vertex -5.971108436584473 0 -0.5881028175354004
			vertex -5.884711742401123 0 -1.1705418825149536
			vertex 0 0 0
		endloop
	endfacet
	facet normal 0 -1 0
		outer loop
			vertex -6 0 -1.1021821408568715e-15
			vertex -5.971108436584473 0 -0.5881028175354004
			vertex 0 0 0
		endloop
	endfacet
	facet normal 0 -1 0
		outer loop
			vertex -5.971108436584473 0 0.5881028175354004
			vertex -6 0 -1.1021821408568715e-15
			vertex 0 0 0
		endloop
	endfacet
	facet normal 0 -1 0
		outer loop
			vertex -5.884711742401123 0 1.1705418825149536
			vertex -5.971108436584473 0 0.5881028175354004
			vertex 0 0 0
		endloop
	endfacet
	facet normal 0 -1 0
		outer loop
			vertex -5.741641998291016 0 1.7417080402374268
			vertex -5.884711742401123 0 1.1705418825149536
			vertex 0 0 0
		endloop
	endfacet
	facet normal 0 -1 0
		outer loop
			vertex -5.543277263641357 0 2.296100616455078
			vertex -5.741641998291016 0 1.7417080402374268
			vertex 0 0 0
		endloop
	endfacet
	facet normal 0 -1 0
		outer loop
			vertex -5.29152774810791 0 2.8283803462982178
			vertex -5.543277263641357 0 2.296100616455078
			vertex 0 0 0
		endloop
	endfacet
	facet normal 0 -1 0
		outer loop
			vertex -4.9888176918029785 0 3.333421468734741
			vertex -5.29152774810791 0 2.8283803462982178
			vertex 0 0 0
		endloop
	endfacet
	facet normal 0 -1 0
		outer loop
			vertex -4.638062953948975 0 3.8063597679138184
			vertex -4.9888176918029785 0 3.333421468734741
			vertex 0 0 0
		endloop
	endfacet
	facet normal 0 -1 0
		outer loop
			vertex -4.242640495300293 0 4.242640495300293
			vertex -4.638062953948975 0 3.8063597679138184
			vertex 0 0 0
		endloop
	endfacet
	facet normal 0 -1 0
		outer loop
			vertex -3.8063597679138184 0 4.638062953948975
			vertex -4.242640495300293 0 4.242640495300293
			vertex 0 0 0
		endloop
	endfacet
	facet normal 0 -1 0
		outer loop
			vertex -3.333421468734741 0 4.9888176918029785
			vertex -3.8063597679138184 0 4.638062953948975
			vertex 0 0 0
		endloop
	endfacet
	facet normal 0 -1 0
		outer loop
			vertex -2.8283803462982178 0 5.29152774810791
			vertex -3.333421468734741 0 4.9888176918029785
			vertex 0 0 0
		endloop
	endfacet
	facet normal 0 -1 0
		outer loop
			vertex -2.296100616455078 0 5.543277263641357
			vertex -2.8283803462982178 0 5.29152774810791
			vertex 0 0 0
		endloop
	endfacet
	facet normal 0 -1 0
		outer loop
			vertex -1.7417080402374268 0 5.741641998291016
			vertex -2.296100616455078 0 5.543277263641357
			vertex 0 0 0
		endloop
	endfacet
	facet normal 0 -1 0
		outer loop
			vertex -1.1705418825149536 0 5.884711742401123
			vertex -1.7417080402374268 0 5.741641998291016
			vertex 0 0 0
		endloop
	endfacet
	facet normal 0 -1 0
		outer loop
			vertex -0.5881028175354004 0 5.971108436584473
			vertex -1.1705418825149536 0 5.884711742401123
			vertex 0 0 0
		endloop
	endfacet
	facet normal 0 -1 0
		outer loop
			vertex -1.469576117223083e-15 0 6
			vertex -0.5881028175354004 0 5.971108436584473
			vertex 0 0 0
		endloop
	endfacet
	facet normal 0.09801728974632537 0 0.9951847119559188
		outer loop
			vertex 0 26.5 1.2000000476837158
			vertex 0 1.5 1.2000000476837158
			vertex 0.23410838842391968 26.5 1.1769423484802246
		endloop
	endfacet
	facet normal 0.09801728974632537 0 0.9951847119559188
		outer loop
			vertex 0 1.5 1.2000000476837158
			vertex 0.23410838842391968 1.5 1.1769423484802246
			vertex 0.23410838842391968 26.5 1.1769423484802246
		endloop
	endfacet
	facet normal 0.29028468175097155 0 0.9569403343682077
		outer loop
			vertex 0.23410838842391968 26.5 1.1769423484802246
			vertex 0.23410838842391968 1.5 1.1769423484802246
			vertex 0.45922011137008667 26.5 1.1086554527282715
		endloop
	endfacet
	facet normal 0.29028468175097155 0 0.9569403343682077
		outer loop
			vertex 0.23410838842391968 1.5 1.1769423484802246
			vertex 0.45922011137008667 1.5 1.1086554527282715
			vertex 0.45922011137008667 26.5 1.1086554527282715
		endloop
	endfacet
	facet normal 0.4713968530829202 0 0.8819212022077256
		outer loop
			vertex 0.45922011137008667 26.5 1.1086554527282715
			vertex 0.45922011137008667 1.5 1.1086554527282715
			vertex 0.6666842699050903 26.5 0.9977635145187378
		endloop
	endfacet
	facet normal 0.4713968530829202 0 0.8819212022077256
		outer loop
			vertex 0.45922011137008667 1.5 1.1086554527282715
			vertex 0.6666842699050903 1.5 0.9977635145187378
			vertex 0.6666842699050903 26.5 0.9977635145187378
		endloop
	endfacet
	facet normal 0.6343931693783067 0 0.7730105475646158
		outer loop
			vertex 0.6666842699050903 26.5 0.9977635145187378
			vertex 0.6666842699050903 1.5 0.9977635145187378
			vertex 0.8485281467437744 26.5 0.8485281467437744
		endloop
	endfacet
	facet normal 0.6343931693783067 0 0.7730105475646158
		outer loop
			vertex 0.6666842699050903 1.5 0.9977635145187378
			vertex 0.8485281467437744 1.5 0.8485281467437744
			vertex 0.8485281467437744 26.5 0.8485281467437744
		endloop
	endfacet
	facet normal 0.7730105475646158 0 0.6343931693783067
		outer loop
			vertex 0.8485281467437744 26.5 0.8485281467437744
			vertex 0.8485281467437744 1.5 0.8485281467437744
			vertex 0.9977635145187378 26.5 0.6666842699050903
		endloop
	endfacet
	facet normal 0.7730105475646158 0 0.6343931693783067
		outer loop
			vertex 0.8485281467437744 1.5 0.8485281467437744
			vertex 0.9977635145187378 1.5 0.6666842699050903
			vertex 0.9977635145187378 26.5 0.6666842699050903
		endloop
	endfacet
	facet normal 0.8819212022077256 0 0.4713968530829202
		outer loop
			vertex 0.9977635145187378 26.5 0.6666842699050903
			vertex 0.9977635145187378 1.5 0.6666842699050903
			vertex 1.1086554527282715 26.5 0.45922011137008667
		endloop
	endfacet
	facet normal 0.8819212022077256 0 0.4713968530829202
		outer loop
			vertex 0.9977635145187378 1.5 0.6666842699050903
			vertex 1.1086554527282715 1.5 0.45922011137008667
			vertex 1.1086554527282715 26.5 0.45922011137008667
		endloop
	endfacet
	facet normal 0.9569403343682077 0 0.29028468175097155
		outer loop
			vertex 1.1086554527282715 26.5 0.45922011137008667
			vertex 1.1086554527282715 1.5 0.45922011137008667
			vertex 1.1769423484802246 26.5 0.23410838842391968
		endloop
	endfacet
	facet normal 0.9569403343682077 0 0.29028468175097155
		outer loop
			vertex 1.1086554527282715 1.5 0.45922011137008667
			vertex 1.1769423484802246 1.5 0.23410838842391968
			vertex 1.1769423484802246 26.5 0.23410838842391968
		endloop
	endfacet
	facet normal 0.9951847119559188 0 0.09801728974632541
		outer loop
			vertex 1.1769423484802246 26.5 0.23410838842391968
			vertex 1.1769423484802246 1.5 0.23410838842391968
			vertex 1.2000000476837158 26.5 7.347881115511007e-17
		endloop
	endfacet
	facet normal 0.9951847119559188 0 0.09801728974632541
		outer loop
			vertex 1.1769423484802246 1.5 0.23410838842391968
			vertex 1.2000000476837158 1.5 7.347881115511007e-17
			vertex 1.2000000476837158 26.5 7.347881115511007e-17
		endloop
	endfacet
	facet normal 0.9951847119559187 0 -0.09801728974632534
		outer loop
			vertex 1.2000000476837158 26.5 7.347881115511007e-17
			vertex 1.2000000476837158 1.5 7.347881115511007e-17
			vertex 1.1769423484802246 26.5 -0.23410838842391968
		endloop
	endfacet
	facet normal 0.9951847119559187 0 -0.09801728974632534
		outer loop
			vertex 1.2000000476837158 1.5 7.347881115511007e-17
			vertex 1.1769423484802246 1.5 -0.23410838842391968
			vertex 1.1769423484802246 26.5 -0.23410838842391968
		endloop
	endfacet
	facet normal 0.9569403343682077 0 -0.29028468175097155
		outer loop
			vertex 1.1769423484802246 26.5 -0.23410838842391968
			vertex 1.1769423484802246 1.5 -0.23410838842391968
			vertex 1.1086554527282715 26.5 -0.45922011137008667
		endloop
	endfacet
	facet normal 0.9569403343682077 0 -0.29028468175097155
		outer loop
			vertex 1.1769423484802246 1.5 -0.23410838842391968
			vertex 1.1086554527282715 1.5 -0.45922011137008667
			vertex 1.1086554527282715 26.5 -0.45922011137008667
		endloop
	endfacet
	facet normal 0.8819212022077256 0 -0.4713968530829202
		outer loop
			vertex 1.1086554527282715 26.5 -0.45922011137008667
			vertex 1.1086554527282715 1.5 -0.45922011137008667
			vertex 0.9977635145187378 26.5 -0.6666842699050903
		endloop
	endfacet
	facet normal 0.8819212022077256 0 -0.4713968530829202
		outer loop
			vertex 1.1086554527282715 1.5 -0.45922011137008667
			vertex 0.9977635145187378 1.5 -0.6666842699050903
			vertex 0.9977635145187378 26.5 -0.6666842699050903
		endloop
	endfacet
	facet normal 0.7730105475646158 0 -0.6343931693783067
		outer loop
			vertex 0.9977635145187378 26.5 -0.6666842699050903
			vertex 0.9977635145187378 1.5 -0.6666842699050903
			vertex 0.8485281467437744 26.5 -0.8485281467437744
		endloop
	endfacet
	facet normal 0.7730105475646158 0 -0.6343931693783067
		outer loop
			vertex 0.9977635145187378 1.5 -0.6666842699050903
			vertex 0.8485281467437744 1.5 -0.8485281467437744
			vertex 0.8485281467437744 26.5 -0.8485281467437744
		endloop
	endfacet
	facet normal 0.6343931693783067 0 -0.7730105475646158
		outer loop
			vertex 0.8485281467437744 26.5 -0.8485281467437744
			vertex 0.8485281467437744 1.5 -0.8485281467437744
			vertex 0.6666842699050903 26.5 -0.9977635145187378
		endloop
	endfacet
	facet normal 0.6343931693783067 0 -0.7730105475646158
		outer loop
			vertex 0.8485281467437744 1.5 -0.8485281467437744
			vertex 0.6666842699050903 1.5 -0.9977635145187378
			vertex 0.6666842699050903 26.5 -0.9977635145187378
		endloop
	endfacet
	facet normal 0.4713968530829202 0 -0.8819212022077256
		outer loop
			vertex 0.6666842699050903 26.5 -0.9977635145187378
			vertex 0.6666842699050903 1.5 -0.9977635145187378
			vertex 0.45922011137008667 26.5 -1.1086554527282715
		endloop
	endfacet
	facet normal 0.4713968530829202 0 -0.8819212022077256
		outer loop
			vertex 0.6666842699050903 1.5 -0.9977635145187378
			vertex 0.45922011137008667 1.5 -1.1086554527282715
			vertex 0.45922011137008667 26.5 -1.1086554527282715
		endloop
	endfacet
	facet normal 0.29028468175097155 0 -0.9569403343682077
		outer loop
			vertex 0.45922011137008667 26.5 -1.1086554527282715
			vertex 0.45922011137008667 1.5 -1.1086554527282715
			vertex 0.23410838842391968 26.5 -1.1769423484802246
		endloop
	endfacet
	facet normal 0.29028468175097155 0 -0.9569403343682077
		outer loop
			vertex 0.45922011137008667 1.5 -1.1086554527282715
			vertex 0.23410838842391968 1.5 -1.1769423484802246
			vertex 0.23410838842391968 26.5 -1.1769423484802246
		endloop
	endfacet
	facet normal 0.09801728974632541 0 -0.9951847119559187
		outer loop
			vertex 0.23410838842391968 26.5 -1.1769423484802246
			vertex 0.23410838842391968 1.5 -1.1769423484802246
			vertex 1.4695762231022014e-16 26.5 -1.2000000476837158
		endloop
	endfacet
	facet normal 0.09801728974632541 0 -0.9951847119559187
		outer loop
			vertex 0.23410838842391968 1.5 -1.1769423484802246
			vertex 1.4695762231022014e-16 1.5 -1.2000000476837158
			vertex 1.4695762231022014e-16 26.5 -1.2000000476837158
		endloop
	endfacet
	facet normal -0.0980172897463253 0 -0.9951847119559187
		outer loop
			vertex 1.4695762231022014e-16 26.5 -1.2000000476837158
			vertex 1.4695762231022014e-16 1.5 -1.2000000476837158
			vertex -0.23410838842391968 26.5 -1.1769423484802246
		endloop
	endfacet
	facet normal -0.0980172897463253 0 -0.9951847119559187
		outer loop
			vertex 1.4695762231022014e-16 1.5 -1.2000000476837158
			vertex -0.23410838842391968 1.5 -1.1769423484802246
			vertex -0.23410838842391968 26.5 -1.1769423484802246
		endloop
	endfacet
	facet normal -0.29028468175097155 0 -0.9569403343682077
		outer loop
			vertex -0.23410838842391968 26.5 -1.1769423484802246
			vertex -0.23410838842391968 1.5 -1.1769423484802246
			vertex -0.45922011137008667 26.5 -1.1086554527282715
		endloop
	endfacet
	facet normal -0.29028468175097155 0 -0.9569403343682077
		outer loop
			vertex -0.23410838842391968 1.5 -1.1769423484802246
			vertex -0.45922011137008667 1.5 -1.1086554527282715
			vertex -0.45922011137008667 26.5 -1.1086554527282715
		endloop
	endfacet
	facet normal -0.4713968530829202 0 -0.8819212022077256
		outer loop
			vertex -0.45922011137008667 26.5 -1.1086554527282715
			vertex -0.45922011137008667 1.5 -1.1086554527282715
			vertex -0.6666842699050903 26.5 -0.9977635145187378
		endloop
	endfacet
	facet normal -0.4713968530829202 0 -0.8819212022077256
		outer loop
			vertex -0.45922011137008667 1.5 -1.1086554527282715
			vertex -0.6666842699050903 1.5 -0.9977635145187378
			vertex -0.6666842699050903 26.5 -0.9977635145187378
		endloop
	endfacet
	facet normal -0.6343931693783067 0 -0.7730105475646158
		outer loop
			vertex -0.6666842699050903 26.5 -0.9977635145187378
			vertex -0.6666842699050903 1.5 -0.9977635145187378
			vertex -0.8485281467437744 26.5 -0.8485281467437744
		endloop
	endfacet
	facet normal -0.6343931693783067 0 -0.7730105475646158
		outer loop
			vertex -0.6666842699050903 1.5 -0.9977635145187378
			vertex -0.8485281467437744 1.5 -0.8485281467437744
			vertex -0.8485281467437744 26.5 -0.8485281467437744
		endloop
	endfacet
	facet normal -0.7730105475646158 0 -0.6343931693783067
		outer loop
			vertex -0.8485281467437744 26.5 -0.8485281467437744
			vertex -0.8485281467437744 1.5 -0.8485281467437744
			vertex -0.9977635145187378 26.5 -0.6666842699050903
		endloop
	endfacet
	facet normal -0.7730105475646158 0 -0.6343931693783067
		outer loop
			vertex -0.8485281467437744 1.5 -0.8485281467437744
			vertex -0.9977635145187378 1.5 -0.6666842699050903
			vertex -0.9977635145187378 26.5 -0.6666842699050903
		endloop
	endfacet
	facet normal -0.8819212022077256 0 -0.4713968530829202
		outer loop
			vertex -0.9977635145187378 26.5 -0.6666842699050903
			vertex -0.9977635145187378 1.5 -0.6666842699050903
			vertex -1.1086554527282715 26.5 -0.45922011137008667
		endloop
	endfacet
	facet normal -0.8819212022077256 0 -0.4713968530829202
		outer loop
			vertex -0.9977635145187378 1.5 -0.6666842699050903
			vertex -1.1086554527282715 1.5 -0.45922011137008667
			vertex -1.1086554527282715 26.5 -0.45922011137008667
		endloop
	endfacet
	facet normal -0.9569403343682077 0 -0.29028468175097155
		outer loop
			vertex -1.1086554527282715 26.5 -0.45922011137008667
			vertex -1.1086554527282715 1.5 -0.45922011137008667
			vertex -1.1769423484802246 26.5 -0.23410838842391968
		endloop
	endfacet
	facet normal -0.9569403343682077 0 -0.29028468175097155
		outer loop
			vertex -1.1086554527282715 1.5 -0.45922011137008667
			vertex -1.1769423484802246 1.5 -0.23410838842391968
			vertex -1.1769423484802246 26.5 -0.23410838842391968
		endloop
	endfacet
	facet normal -0.9951847119559187 0 -0.09801728974632545
		outer loop
			vertex -1.1769423484802246 26.5 -0.23410838842391968
			vertex -1.1769423484802246 1.5 -0.23410838842391968
			vertex -1.2000000476837158 26.5 -2.2043642023044041e-16
		endloop
	endfacet
	facet normal -0.9951847119559187 0 -0.09801728974632545
		outer loop
			vertex -1.1769423484802246 1.5 -0.23410838842391968
			vertex -1.2000000476837158 1.5 -2.2043642023044041e-16
			vertex -1.2000000476837158 26.5 -2.2043642023044041e-16
		endloop
	endfacet
	facet normal -0.9951847119559187 0 0.09801728974632527
		outer loop
			vertex -1.2000000476837158 26.5 -2.2043642023044041e-16
			vertex -1.2000000476837158 1.5 -2.2043642023044041e-16
			vertex -1.1769423484802246 26.5 0.23410838842391968
		endloop
	endfacet
	facet normal -0.9951847119559187 0 0.09801728974632527
		outer loop
			vertex -1.2000000476837158 1.5 -2.2043642023044041e-16
			vertex -1.1769423484802246 1.5 0.23410838842391968
			vertex -1.1769423484802246 26.5 0.23410838842391968
		endloop
	endfacet
	facet normal -0.9569403343682077 0 0.29028468175097155
		outer loop
			vertex -1.1769423484802246 26.5 0.23410838842391968
			vertex -1.1769423484802246 1.5 0.23410838842391968
			vertex -1.1086554527282715 26.5 0.45922011137008667
		endloop
	endfacet
	facet normal -0.9569403343682077 0 0.29028468175097155
		outer loop
			vertex -1.1769423484802246 1.5 0.23410838842391968
			vertex -1.1086554527282715 1.5 0.45922011137008667
			vertex -1.1086554527282715 26.5 0.45922011137008667
		endloop
	endfacet
	facet normal -0.8819212022077256 0 0.4713968530829202
		outer loop
			vertex -1.1086554527282715 26.5 0.45922011137008667
			vertex -1.1086554527282715 1.5 0.45922011137008667
			vertex -0.9977635145187378 26.5 0.6666842699050903
		endloop
	endfacet
	facet normal -0.8819212022077256 0 0.4713968530829202
		outer loop
			vertex -1.1086554527282715 1.5 0.45922011137008667
			vertex -0.9977635145187378 1.5 0.6666842699050903
			vertex -0.9977635145187378 26.5 0.6666842699050903
		endloop
	endfacet
	facet normal -0.7730105475646158 0 0.6343931693783067
		outer loop
			vertex -0.9977635145187378 26.5 0.6666842699050903
			vertex -0.9977635145187378 1.5 0.6666842699050903
			vertex -0.8485281467437744 26.5 0.8485281467437744
		endloop
	endfacet
	facet normal -0.7730105475646158 0 0.6343931693783067
		outer loop
			vertex -0.9977635145187378 1.5 0.6666842699050903
			vertex -0.8485281467437744 1.5 0.8485281467437744
			vertex -0.8485281467437744 26.5 0.8485281467437744
		endloop
	endfacet
	facet normal -0.6343931693783067 0 0.7730105475646158
		outer loop
			vertex -0.8485281467437744 26.5 0.8485281467437744
			vertex -0.8485281467437744 1.5 0.8485281467437744
			vertex -0.6666842699050903 26.5 0.9977635145187378
		endloop
	endfacet
	facet normal -0.6343931693783067 0 0.7730105475646158
		outer loop
			vertex -0.8485281467437744 1.5 0.8485281467437744
			vertex -0.6666842699050903 1.5 0.9977635145187378
			vertex -0.6666842699050903 26.5 0.9977635145187378
		endloop
	endfacet
	facet normal -0.4713968530829202 0 0.8819212022077256
		outer loop
			vertex -0.6666842699050903 26.5 0.9977635145187378
			vertex -0.6666842699050903 1.5 0.9977635145187378
			vertex -0.45922011137008667 26.5 1.1086554527282715
		endloop
	endfacet
	facet normal -0.4713968530829202 0 0.8819212022077256
		outer loop
			vertex -0.6666842699050903 1.5 0.9977635145187378
			vertex -0.45922011137008667 1.5 1.1086554527282715
			vertex -0.45922011137008667 26.5 1.1086554527282715
		endloop
	endfacet
	facet normal -0.29028468175097155 0 0.9569403343682077
		outer loop
			vertex -0.45922011137008667 26.5 1.1086554527282715
			vertex -0.45922011137008667 1.5 1.1086554527282715
			vertex -0.23410838842391968 26.5 1.1769423484802246
		endloop
	endfacet
	facet normal -0.29028468175097155 0 0.9569403343682077
		outer loop
			vertex -0.45922011137008667 1.5 1.1086554527282715
			vertex -0.23410838842391968 1.5 1.1769423484802246
			vertex -0.23410838842391968 26.5 1.1769423484802246
		endloop
	endfacet
	facet normal -0.0980172897463255 0 0.9951847119559187
		outer loop
			vertex -0.23410838842391968 26.5 1.1769423484802246
			vertex -0.23410838842391968 1.5 1.1769423484802246
			vertex -2.939152446204403e-16 26.5 1.2000000476837158
		endloop
	endfacet
	facet normal -0.0980172897463255 0 0.9951847119559187
		outer loop
			vertex -0.23410838842391968 1.5 1.1769423484802246
			vertex -2.939152446204403e-16 1.5 1.2000000476837158
			vertex -2.939152446204403e-16 26.5 1.2000000476837158
		endloop
	endfacet
	facet normal 0 1 0
		outer loop
			vertex 0 26.5 1.2000000476837158
			vertex 0.23410838842391968 26.5 1.1769423484802246
			vertex 0 26.5 0
		endloop
	endfacet
	facet normal 0 1 0
		outer loop
			vertex 0.23410838842391968 26.5 1.1769423484802246
			vertex 0.45922011137008667 26.5 1.1086554527282715
			vertex 0 26.5 0
		endloop
	endfacet
	facet normal 0 1 0
		outer loop
			vertex 0.45922011137008667 26.5 1.1086554527282715
			vertex 0.6666842699050903 26.5 0.9977635145187378
			vertex 0 26.5 0
		endloop
	endfacet
	facet normal 0 1 0
		outer loop
			vertex 0.6666842699050903 26.5 0.9977635145187378
			vertex 0.8485281467437744 26.5 0.8485281467437744
			vertex 0 26.5 0
		endloop
	endfacet
	facet normal 0 1 0
		outer loop
			vertex 0.8485281467437744 26.5 0.8485281467437744
			vertex 0.9977635145187378 26.5 0.6666842699050903
			vertex 0 26.5 0
		endloop
	endfacet
	facet normal 0 1 0
		outer loop
			vertex 0.9977635145187378 26.5 0.6666842699050903
			vertex 1.1086554527282715 26.5 0.45922011137008667
			vertex 0 26.5 0
		endloop
	endfacet
	facet normal 0 1 0
		outer loop
			vertex 1.1086554527282715 26.5 0.45922011137008667
			vertex 1.1769423484802246 26.5 0.23410838842391968
			vertex 0 26.5 0
		endloop
	endfacet
	facet normal 0 1 0
		outer loop
			vertex 1.1769423484802246 26.5 0.23410838842391968
			vertex 1.2000000476837158 26.5 7.347881115511007e-17
			vertex 0 26.5 0
		endloop
	endfacet
	facet normal 0 1 0
		outer loop
			vertex 1.2000000476837158 26.5 7.347881115511007e-17
			vertex 1.1769423484802246 26.5 -0.23410838842391968
			vertex 0 26.5 0
		endloop
	endfacet
	facet normal 0 1 0
		outer loop
			vertex 1.1769423484802246 26.5 -0.23410838842391968
			vertex 1.1086554527282715 26.5 -0.45922011137008667
			vertex 0 26.5 0
		endloop
	endfacet
	facet normal 0 1 0
		outer loop
			vertex 1.1086554527282715 26.5 -0.45922011137008667
			vertex 0.9977635145187378 26.5 -0.6666842699050903
			vertex 0 26.5 0
		endloop
	endfacet
	facet normal 0 1 0
		outer loop
			vertex 0.9977635145187378 26.5 -0.6666842699050903
			vertex 0.8485281467437744 26.5 -0.8485281467437744
			vertex 0 26.5 0
		endloop
	endfacet
	facet normal 0 1 0
		outer loop
			vertex 0.8485281467437744 26.5 -0.8485281467437744
			vertex 0.6666842699050903 26.5 -0.9977635145187378
			vertex 0 26.5 0
		endloop
	endfacet
	facet normal 0 1 0
		outer loop
			vertex 0.6666842699050903 26.5 -0.9977635145187378
			vertex 0.45922011137008667 26.5 -1.1086554527282715
			vertex 0 26.5 0
		endloop
	endfacet
	facet normal 0 1 0
		outer loop
			vertex 0.45922011137008667 26.5 -1.1086554527282715
			vertex 0.23410838842391968 26.5 -1.1769423484802246
			vertex 0 26.5 0
		endloop
	endfacet
	facet normal 0 1 0
		outer loop
			vertex 0.23410838842391968 26.5 -1.1769423484802246
			vertex 1.4695762231022014e-16 26.5 -1.2000000476837158
			vertex 0 26.5 0
		endloop
	endfacet
	facet normal 0 1 0
		outer loop
			vertex 1.4695762231022014e-16 26.5 -1.2000000476837158
			vertex -0.23410838842391968 26.5 -1.1769423484802246
			vertex 0 26.5 0
		endloop
	endfacet
	facet normal 0 1 0
		outer loop
			vertex -0.23410838842391968 26.5 -1.1769423484802246
			vertex -0.45922011137008667 26.5 -1.1086554527282715
			vertex 0 26.5 0
		endloop
	endfacet
	facet normal 0 1 0
		outer loop
			vertex -0.45922011137008667 26.5 -1.1086554527282715
			vertex -0.6666842699050903 26.5 -0.9977635145187378
			vertex 0 26.5 0
		endloop
	endfacet
	facet normal 0 1 0
		outer loop
			vertex -0.6666842699050903 26.5 -0.9977635145187378
			vertex -0.8485281467437744 26.5 -0.8485281467437744
			vertex 0 26.5 0
		endloop
	endfacet
	facet normal 0 1 0
		outer loop
			vertex -0.8485281467437744 26.5 -0.8485281467437744
			vertex -0.9977635145187378 26.5 -0.6666842699050903
			vertex 0 26.5 0
		endloop
	endfacet
	facet normal 0 1 0
		outer loop
			vertex -0.9977635145187378 26.5 -0.6666842699050903
			vertex -1.1086554527282715 26.5 -0.45922011137008667
			vertex 0 26.5 0
		endloop
	endfacet
	facet normal 0 1 0
		outer loop
			vertex -1.1086554527282715 26.5 -0.45922011137008667
			vertex -1.1769423484802246 26.5 -0.23410838842391968
			vertex 0 26.5 0
		endloop
	endfacet
	facet normal 0 1 0
		outer loop
			vertex -1.1769423484802246 26.5 -0.23410838842391968
			vertex -1.2000000476837158 26.5 -2.2043642023044041e-16
			vertex 0 26.5 0
		endloop
	endfacet
	facet normal 0 1 0
		outer loop
			vertex -1.2000000476837158 26.5 -2.2043642023044041e-16
			vertex -1.1769423484802246 26.5 0.23410838842391968
			vertex 0 26.5 0
		endloop
	endfacet
	facet normal 0 1 0
		outer loop
			vertex -1.1769423484802246 26.5 0.23410838842391968
			vertex -1.1086554527282715 26.5 0.45922011137008667
			vertex 0 26.5 0
		endloop
	endfacet
	facet normal 0 1 0
		outer loop
			vertex -1.1086554527282715 26.5 0.45922011137008667
			vertex -0.9977635145187378 26.5 0.6666842699050903
			vertex 0 26.5 0
		endloop
	endfacet
	facet normal 0 1 0
		outer loop
			vertex -0.9977635145187378 26.5 0.6666842699050903
			vertex -0.8485281467437744 26.5 0.8485281467437744
			vertex 0 26.5 0
		endloop
	endfacet
	facet normal 0 1 0
		outer loop
			vertex -0.8485281467437744 26.5 0.8485281467437744
			vertex -0.6666842699050903 26.5 0.9977635145187378
			vertex 0 26.5 0
		endloop
	endfacet
	facet normal 0 1 0
		outer loop
			vertex -0.6666842699050903 26.5 0.9977635145187378
			vertex -0.45922011137008667 26.5 1.1086554527282715
			vertex 0 26.5 0
		endloop
	endfacet
	facet normal 0 1 0
		outer loop
			vertex -0.45922011137008667 26.5 1.1086554527282715
			vertex -0.23410838842391968 26.5 1.1769423484802246
			vertex 0 26.5 0
		endloop
	endfacet
	facet normal 0 1 0
		outer loop
			vertex -0.23410838842391968 26.5 1.1769423484802246
			vertex -2.939152446204403e-16 26.5 1.2000000476837158
			vertex 0 26.5 0
		endloop
	endfacet
	facet normal 0 -1 0
		outer loop
			vertex 0.23410838842391968 1.5 1.1769423484802246
			vertex 0 1.5 1.2000000476837158
			vertex 0 1.5 0
		endloop
	endfacet
	facet normal 0 -1 0
		outer loop
			vertex 0.45922011137008667 1.5 1.1086554527282715
			vertex 0.23410838842391968 1.5 1.1769423484802246
			vertex 0 1.5 0
		endloop
	endfacet
	facet normal 0 -1 0
		outer loop
			vertex 0.6666842699050903 1.5 0.9977635145187378
			vertex 0.45922011137008667 1.5 1.1086554527282715
			vertex 0 1.5 0
		endloop
	endfacet
	facet normal 0 -1 0
		outer loop
			vertex 0.8485281467437744 1.5 0.8485281467437744
			vertex 0.6666842699050903 1.5 0.9977635145187378
			vertex 0 1.5 0
		endloop
	endfacet
	facet normal 0 -1 0
		outer loop
			vertex 0.9977635145187378 1.5 0.6666842699050903
			vertex 0.8485281467437744 1.5 0.8485281467437744
			vertex 0 1.5 0
		endloop
	endfacet
	facet normal 0 -1 0
		outer loop
			vertex 1.1086554527282715 1.5 0.45922011137008667
			vertex 0.9977635145187378 1.5 0.6666842699050903
			vertex 0 1.5 0
		endloop
	endfacet
	facet normal 0 -1 0
		outer loop
			vertex 1.1769423484802246 1.5 0.23410838842391968
			vertex 1.1086554527282715 1.5 0.45922011137008667
			vertex 0 1.5 0
		endloop
	endfacet
	facet normal 0 -1 0
		outer loop
			vertex 1.2000000476837158 1.5 7.347881115511007e-17
			vertex 1.1769423484802246 1.5 0.23410838842391968
			vertex 0 1.5 0
		endloop
	endfacet
	facet normal 0 -1 0
		outer loop
			vertex 1.1769423484802246 1.5 -0.23410838842391968
			vertex 1.2000000476837158 1.5 7.347881115511007e-17
			vertex 0 1.5 0
		endloop
	endfacet
	facet normal 0 -1 0
		outer loop
			vertex 1.1086554527282715 1.5 -0.45922011137008667
			vertex 1.1769423484802246 1.5 -0.23410838842391968
			vertex 0 1.5 0
		endloop
	endfacet
	facet normal 0 -1 0
		outer loop
			vertex 0.9977635145187378 1.5 -0.6666842699050903
			vertex 1.1086554527282715 1.5 -0.45922011137008667
			vertex 0 1.5 0
		endloop
	endfacet
	facet normal 0 -1 0
		outer loop
			vertex 0.8485281467437744 1.5 -0.8485281467437744
			vertex 0.9977635145187378 1.5 -0.6666842699050903
			vertex 0 1.5 0
		endloop
	endfacet
	facet normal 0 -1 0
		outer loop
			vertex 0.6666842699050903 1.5 -0.9977635145187378
			vertex 0.8485281467437744 1.5 -0.8485281467437744
			vertex 0 1.5 0
		endloop
	endfacet
	facet normal 0 -1 0
		outer loop
			vertex 0.45922011137008667 1.5 -1.1086554527282715
			vertex 0.6666842699050903 1.5 -0.9977635145187378
			vertex 0 1.5 0
		endloop
	endfacet
	facet normal 0 -1 0
		outer loop
			vertex 0.23410838842391968 1.5 -1.1769423484802246
			vertex 0.45922011137008667 1.5 -1.1086554527282715
			vertex 0 1.5 0
		endloop
	endfacet
	facet normal 0 -1 0
		outer loop
			vertex 1.4695762231022014e-16 1.5 -1.2000000476837158
			vertex 0.23410838842391968 1.5 -1.1769423484802246
			vertex 0 1.5 0
		endloop
	endfacet
	facet normal 0 -1 0
		outer loop
			vertex -0.23410838842391968 1.5 -1.1769423484802246
			vertex 1.4695762231022014e-16 1.5 -1.2000000476837158
			vertex 0 1.5 0
		endloop
	endfacet
	facet normal 0 -1 0
		outer loop
			vertex -0.45922011137008667 1.5 -1.1086554527282715
			vertex -0.23410838842391968 1.5 -1.1769423484802246
			vertex 0 1.5 0
		endloop
	endfacet
	facet normal 0 -1 0
		outer loop
			vertex -0.6666842699050903 1.5 -0.9977635145187378
			vertex -0.45922011137008667 1.5 -1.1086554527282715
			vertex 0 1.5 0
		endloop
	endfacet
	facet normal 0 -1 0
		outer loop
			vertex -0.8485281467437744 1.5 -0.8485281467437744
			vertex -0.6666842699050903 1.5 -0.9977635145187378
			vertex 0 1.5 0
		endloop
	endfacet
	facet normal 0 -1 0
		outer loop
			vertex -0.9977635145187378 1.5 -0.6666842699050903
			vertex -0.8485281467437744 1.5 -0.8485281467437744
			vertex 0 1.5 0
		endloop
	endfacet
	facet normal 0 -1 0
		outer loop
			vertex -1.1086554527282715 1.5 -0.45922011137008667
			vertex -0.9977635145187378 1.5 -0.6666842699050903
			vertex 0 1.5 0
		endloop
	endfacet
	facet normal 0 -1 0
		outer loop
			vertex -1.1769423484802246 1.5 -0.23410838842391968
			vertex -1.1086554527282715 1.5 -0.45922011137008667
			vertex 0 1.5 0
		endloop
	endfacet
	facet normal 0 -1 0
		outer loop
			vertex -1.2000000476837158 1.5 -2.2043642023044041e-16
			vertex -1.1769423484802246 1.5 -0.23410838842391968
			vertex 0 1.5 0
		endloop
	endfacet
	facet normal 0 -1 0
		outer loop
			vertex -1.1769423484802246 1.5 0.23410838842391968
			vertex -1.2000000476837158 1.5 -2.2043642023044041e-16
			vertex 0 1.5 0
		endloop
	endfacet
	facet normal 0 -1 0
		outer loop
			vertex -1.1086554527282715 1.5 0.45922011137008667
			vertex -1.1769423484802246 1.5 0.23410838842391968
			vertex 0 1.5 0
		endloop
	endfacet
	facet normal 0 -1 0
		outer loop
			vertex -0.9977635145187378 1.5 0.6666842699050903
			vertex -1.1086554527282715 1.5 0.45922011137008667
			vertex 0 1.5 0
		endloop
	endfacet
	facet normal 0 -1 0
		outer loop
			vertex -0.8485281467437744 1.5 0.8485281467437744
			vertex -0.9977635145187378 1.5 0.6666842699050903
			vertex 0 1.5 0
		endloop
	endfacet
	facet normal 0 -1 0
		outer loop
			vertex -0.6666842699050903 1.5 0.9977635145187378
			vertex -0.8485281467437744 1.5 0.8485281467437744
			vertex 0 1.5 0
		endloop
	endfacet
	facet normal 0 -1 0
		outer loop
			vertex -0.45922011137008667 1.5 1.1086554527282715
			vertex -0.6666842699050903 1.5 0.9977635145187378
			vertex 0 1.5 0
		endloop
	endfacet
	facet normal 0 -1 0
		outer loop
			vertex -0.23410838842391968 1.5 1.1769423484802246
			vertex -0.45922011137008667 1.5 1.1086554527282715
			vertex 0 1.5 0
		endloop
	endfacet
	facet normal 0 -1 0
		outer loop
			vertex -2.939152446204403e-16 1.5 1.2000000476837158
			vertex -0.23410838842391968 1.5 1.1769423484802246
			vertex 0 1.5 0
		endloop
	endfacet
	facet normal 1 0 0
		outer loop
			vertex 6 27.25 2
			vertex 6 25.75 2
			vertex 6 27.25 -2
		endloop
	endfacet
	facet normal 1 0 0
		outer loop
			vertex 6 25.75 2
			vertex 6 25.75 -2
			vertex 6 27.25 -2
		endloop
	endfacet
	facet normal -1 0 0
		outer loop
			vertex -6 27.25 -2
			vertex -6 25.75 -2
			vertex -6 27.25 2
		endloop
	endfacet
	facet normal -1 0 0
		outer loop
			vertex -6 25.75 -2
			vertex -6 25.75 2
			vertex -6 27.25 2
		endloop
	endfacet
	facet normal 0 1 0
		outer loop
			vertex -6 27.25 -2
			vertex -6 27.25 2
			vertex 6 27.25 -2
		endloop
	endfacet
	facet normal 0 1 0
		outer loop
			vertex -6 27.25 2
			vertex 6 27.25 2
			vertex 6 27.25 -2
		endloop
	endfacet
	facet normal 0 -1 0
		outer loop
			vertex -6 25.75 2
			vertex -6 25.75 -2
			vertex 6 25.75 2
		endloop
	endfacet
	facet normal 0 -1 0
		outer loop
			vertex -6 25.75 -2
			vertex 6 25.75 -2
			vertex 6 25.75 2
		endloop
	endfacet
	facet normal 0 0 1
		outer loop
			vertex -6 27.25 2
			vertex -6 25.75 2
			vertex 6 27.25 2
		endloop
	endfacet
	facet normal 0 0 1
		outer loop
			vertex -6 25.75 2
			vertex 6 25.75 2
			vertex 6 27.25 2
		endloop
	endfacet
	facet normal 0 0 -1
		outer loop
			vertex 6 27.25 -2
			vertex 6 25.75 -2
			vertex -6 27.25 -2
		endloop
	endfacet
	facet normal 0 0 -1
		outer loop
			vertex 6 25.75 -2
			vertex -6 25.75 -2
			vertex -6 27.25 -2
		endloop
	endfacet
	facet normal 1 0 0
		outer loop
			vertex -5.799999994039536 28 2.25
			vertex -5.799999994039536 26 2.25
			vertex -5.799999994039536 28 -2.25
		endloop
	endfacet
	facet normal 1 0 0
		outer loop
			vertex -5.799999994039536 26 2.25
			vertex -5.799999994039536 26 -2.25
			vertex -5.799999994039536 28 -2.25
		endloop
	endfacet
	facet normal -1 0 0
		outer loop
			vertex -6.600000005960465 28 -2.25
			vertex -6.600000005960465 26 -2.25
			vertex -6.600000005960465 28 2.25
		endloop
	endfacet
	facet normal -1 0 0
		outer loop
			vertex -6.600000005960465 26 -2.25
			vertex -6.600000005960465 26 2.25
			vertex -6.600000005960465 28 2.25
		endloop
	endfacet
	facet normal 0 1 0
		outer loop
			vertex -6.600000005960465 28 -2.25
			vertex -6.600000005960465 28 2.25
			vertex -5.799999994039536 28 -2.25
		endloop
	endfacet
	facet normal 0 1 0
		outer loop
			vertex -6.600000005960465 28 2.25
			vertex -5.799999994039536 28 2.25
			vertex -5.799999994039536 28 -2.25
		endloop
	endfacet
	facet normal 0 -1 0
		outer loop
			vertex -6.600000005960465 26 2.25
			vertex -6.600000005960465 26 -2.25
			vertex -5.799999994039536 26 2.25
		endloop
	endfacet
	facet normal 0 -1 0
		outer loop
			vertex -6.600000005960465 26 -2.25
			vertex -5.799999994039536 26 -2.25
			vertex -5.799999994039536 26 2.25
		endloop
	endfacet
	facet normal 0 0 1
		outer loop
			vertex -6.600000005960465 28 2.25
			vertex -6.600000005960465 26 2.25
			vertex -5.799999994039536 28 2.25
		endloop
	endfacet
	facet normal 0 0 1
		outer loop
			vertex -6.600000005960465 26 2.25
			vertex -5.799999994039536 26 2.25
			vertex -5.799999994039536 28 2.25
		endloop
	endfacet
	facet normal 0 0 -1
		outer loop
			vertex -5.799999994039536 28 -2.25
			vertex -5.799999994039536 26 -2.25
			vertex -6.600000005960465 28 -2.25
		endloop
	endfacet
	facet normal 0 0 -1
		outer loop
			vertex -5.799999994039536 26 -2.25
			vertex -6.600000005960465 26 -2.25
			vertex -6.600000005960465 28 -2.25
		endloop
	endfacet
	facet normal 1 0 0
		outer loop
			vertex 6.600000005960465 28 2.25
			vertex 6.600000005960465 26 2.25
			vertex 6.600000005960465 28 -2.25
		endloop
	endfacet
	facet normal 1 0 0
		outer loop
			vertex 6.600000005960465 26 2.25
			vertex 6.600000005960465 26 -2.25
			vertex 6.600000005960465 28 -2.25
		endloop
	endfacet
	facet normal -1 0 0
		outer loop
			vertex 5.799999994039536 28 -2.25
			vertex 5.799999994039536 26 -2.25
			vertex 5.799999994039536 28 2.25
		endloop
	endfacet
	facet normal -1 0 0
		outer loop
			vertex 5.799999994039536 26 -2.25
			vertex 5.799999994039536 26 2.25
			vertex 5.799999994039536 28 2.25
		endloop
	endfacet
	facet normal 0 1 0
		outer loop
			vertex 5.799999994039536 28 -2.25
			vertex 5.799999994039536 28 2.25
			vertex 6.600000005960465 28 -2.25
		endloop
	endfacet
	facet normal 0 1 0
		outer loop
			vertex 5.799999994039536 28 2.25
			vertex 6.600000005960465 28 2.25
			vertex 6.600000005960465 28 -2.25
		endloop
	endfacet
	facet normal 0 -1 0
		outer loop
			vertex 5.799999994039536 26 2.25
			vertex 5.799999994039536 26 -2.25
			vertex 6.600000005960465 26 2.25
		endloop
	endfacet
	facet normal 0 -1 0
		outer loop
			vertex 5.799999994039536 26 -2.25
			vertex 6.600000005960465 26 -2.25
			vertex 6.600000005960465 26 2.25
		endloop
	endfacet
	facet normal 0 0 1
		outer loop
			vertex 5.799999994039536 28 2.25
			vertex 5.799999994039536 26 2.25
			vertex 6.600000005960465 28 2.25
		endloop
	endfacet
	facet normal 0 0 1
		outer loop
			vertex 5.799999994039536 26 2.25
			vertex 6.600000005960465 26 2.25
			vertex 6.600000005960465 28 2.25
		endloop
	endfacet
	facet normal 0 0 -1
		outer loop
			vertex 6.600000005960465 28 -2.25
			vertex 6.600000005960465 26 -2.25
			vertex 5.799999994039536 28 -2.25
		endloop
	endfacet
	facet normal 0 0 -1
		outer loop
			vertex 6.600000005960465 26 -2.25
			vertex 5.799999994039536 26 -2.25
			vertex 5.799999994039536 28 -2.25
		endloop
	endfacet
endsolid exported
